<svg width="433" height="433" viewBox="0 0 433 433" fill="none" xmlns="http://www.w3.org/2000/svg">
<path d="M354.662 180.639C343.204 163.968 316.48 160.721 301.385 174.205C301.229 167.388 299.077 160.766 295.196 155.16C291.314 149.554 285.873 145.21 279.547 142.665C273.222 140.12 266.288 139.486 259.606 140.842C252.923 142.198 246.785 145.485 241.952 150.294C244.108 142.717 236.158 135.33 228.295 134.923C220.432 134.516 213.149 138.742 206.402 142.803C199.656 146.865 192.33 151.048 184.467 150.519C175.954 149.948 168.879 144.007 160.929 140.933C141.461 133.407 116.823 146.761 112.511 167.181C90.9646 158.521 63.3219 172.724 57.9008 195.318L373.367 198.998C372.242 194.512 369.9 190.424 366.599 187.185C363.299 183.945 359.168 181.68 354.662 180.639Z" fill="#F5F5F5"/>
<path d="M341.966 79.1177C342.512 75.1514 336.917 71.8866 332.708 71.5488C330.708 71.393 328.621 71.6961 326.724 71.0379C322.611 69.6003 320.966 64.2831 316.956 62.5944C313.951 61.3214 310.496 62.4558 307.586 63.9194C304.676 65.3829 301.801 67.2275 298.545 67.4353C295.722 67.6172 292.647 66.5693 290.179 67.9463C288.335 68.9768 287.365 71.0985 285.667 72.3542C283.97 73.6099 281.84 73.8351 279.77 73.9477C277.7 74.0602 275.578 74.0862 273.708 74.9436C271.837 75.8009 270.244 77.7927 270.668 79.8191L341.966 79.1177Z" fill="#FAFAFA"/>
<path d="M67.3488 46.504C67.6519 44.287 64.5343 42.4684 62.1528 42.2865C61.0566 42.3225 59.9601 42.2236 58.888 41.9921C56.5931 41.1954 55.6752 38.225 53.4322 37.2811C51.7608 36.5796 49.8297 37.2031 48.2362 38.0258C46.6428 38.8485 44.9368 39.8358 43.1268 39.983C41.542 40.0869 39.836 39.498 38.4504 40.2688C37.4199 40.849 36.883 42.0008 35.939 42.7282C34.949 43.3292 33.8058 43.6301 32.6482 43.5942C31.4921 43.5667 30.3409 43.7546 29.2535 44.1484C28.7093 44.353 28.2462 44.7287 27.9339 45.2191C27.6215 45.7095 27.4768 46.288 27.5215 46.8677L67.3488 46.504Z" fill="#FAFAFA"/>
<path d="M392.523 119.551C393.147 114.996 386.721 111.247 381.889 110.891C379.577 110.701 377.186 111.056 374.961 110.294C370.233 108.649 368.345 102.5 363.703 100.586C360.239 99.1312 356.281 100.43 352.93 102.11C349.578 103.79 346.279 105.912 342.538 106.154C339.282 106.362 335.757 105.159 332.908 106.743C330.795 107.93 329.686 110.372 327.712 111.809C325.737 113.247 323.304 113.541 320.94 113.645C318.576 113.749 316.107 113.801 313.951 114.788C311.795 115.776 310.002 118.062 310.487 120.391L392.523 119.551Z" fill="#EBEBEB"/>
<path d="M383.699 41.3687C384.14 38.1559 379.611 35.5232 376.208 35.2461C374.588 35.1162 372.9 35.3674 371.367 34.8304C368.033 33.67 366.708 29.366 363.46 27.9977C361.027 26.9758 358.264 27.8851 355.883 29.0715C353.501 30.258 351.198 31.7475 348.565 31.912C346.279 32.0592 343.793 31.2106 341.793 32.3277C340.303 33.1937 339.524 34.9257 338.147 35.8956C336.726 36.7737 335.08 37.2218 333.41 37.186C331.735 37.1494 330.067 37.4224 328.491 37.9913C326.976 38.6841 325.72 40.2949 326.032 41.9403L383.699 41.3687Z" fill="#EBEBEB"/>
<path d="M80.3821 117.949C80.7112 115.559 77.3425 113.619 74.8137 113.394C73.6016 113.444 72.3881 113.339 71.2025 113.082C68.7258 112.216 67.7385 109.021 65.3224 107.999C63.5124 107.237 61.434 107.921 59.6847 108.795C57.9354 109.67 56.2207 110.787 54.2462 110.917C52.5142 111.021 50.6956 110.398 49.2061 111.229C48.089 111.844 47.4741 113.125 46.4869 113.879C45.4207 114.535 44.1877 114.869 42.9363 114.84C41.6915 114.81 40.4521 115.013 39.2818 115.438C38.7 115.664 38.2069 116.071 37.876 116.601C37.5451 117.13 37.3942 117.752 37.4458 118.373L80.3821 117.949Z" fill="#EBEBEB"/>
<path d="M169.407 81.3433C170.1 76.3032 162.981 72.155 157.638 71.722C155.083 71.5142 152.442 71.9039 150.017 71.0639C144.821 69.2366 142.691 62.4732 137.59 60.3255C133.771 58.7147 129.372 60.1436 125.674 62.0055C121.976 63.8674 118.313 66.2143 114.173 66.4827C110.58 66.7079 106.674 65.3743 103.522 67.1322C101.175 68.4399 99.9537 71.1418 97.7887 72.7439C95.6237 74.346 92.9131 74.6318 90.2892 74.7704C87.6652 74.9089 84.9546 74.9436 82.5644 76.0347C80.1743 77.1259 78.1998 79.6719 78.6934 82.2699L169.407 81.3433Z" fill="#F5F5F5"/>
<path d="M24.1181 262.32C24.1181 262.32 16.7398 263.368 20.9399 279.519C25.14 295.67 28.6733 303.966 28.6733 303.966C28.6733 303.966 29.2362 307.629 26.2831 307.525C23.3301 307.421 17.32 305.075 15.2763 308.296C13.2325 311.518 15.0251 315.579 19.6756 319.736C24.326 323.893 34.1551 333.358 35.0384 334.224C35.9217 335.09 36.5712 336.822 34.5534 337.108C32.5357 337.394 18.186 335.688 17.779 342.555C17.372 349.422 32.2499 358.871 33.852 359.936C35.4541 361.001 35.7052 361.832 35.3502 362.768C34.9951 363.703 30.2148 362.69 26.1013 362.386C21.9878 362.083 17.1815 362.456 17.3027 366.439C17.424 370.423 25.2266 380.46 47.9331 387.873L58.6802 390.618L66.5868 382.772C82.5039 364.958 84.2185 352.367 82.322 348.86C80.4255 345.352 76.0695 347.457 72.6661 349.778C69.2627 352.098 65.6342 355.372 64.8721 354.748C64.11 354.125 63.9022 353.267 64.7508 351.544C65.5995 349.821 73.688 334.224 69.9469 328.448C66.2057 322.672 54.558 331.34 52.6615 332.137C50.765 332.934 50.4532 331.055 50.7823 329.885C51.1114 328.716 54.8698 315.562 56.8443 309.638C58.8188 303.715 58.3858 299.342 54.9044 297.514C51.4231 295.687 47.5261 300.857 45.0234 302.433C42.5206 304.009 41.1783 300.554 41.1783 300.554C41.1783 300.554 40.0179 291.6 35.506 275.527C30.9942 259.454 23.9449 262.346 23.9449 262.346" fill="#EBEBEB"/>
<path d="M58.6715 393.285C55.424 381.464 50.0115 360.377 45.2572 342.261C40.5028 324.144 36.1988 307.794 33.0033 295.956C31.4098 290.049 30.1195 285.261 29.2189 281.944L28.1883 278.125L27.9285 277.137L27.8506 276.791C27.8506 276.791 27.8939 276.904 27.9632 277.129L28.2576 278.107C28.5087 278.973 28.8725 280.264 29.3488 281.9C30.2927 285.2 31.6177 289.98 33.2458 295.886C36.4933 307.707 40.8406 324.075 45.5863 342.174C50.3319 360.273 55.7185 381.387 58.888 393.225" fill="#E0E0E0"/>
<path d="M23.5725 311.933C23.8173 312.039 24.0521 312.166 24.274 312.314C24.7243 312.574 25.3565 312.972 26.1359 313.466C27.686 314.462 29.7904 315.882 32.094 317.501L37.9654 321.658L39.7494 322.914C39.9807 323.051 40.1957 323.214 40.3902 323.399C40.1399 323.303 39.9016 323.178 39.6801 323.027C39.2298 322.767 38.5976 322.368 37.8269 321.866C36.2854 320.853 34.1897 319.398 31.8948 317.787L25.98 313.665L24.248 312.427C23.9991 312.297 23.7713 312.131 23.5725 311.933Z" fill="#E0E0E0"/>
<path d="M41.2823 322.871C41.1957 322.819 43.9495 318.342 47.4222 312.869C50.8949 307.396 53.7786 303.005 53.8566 303.1C53.9345 303.195 51.1893 307.621 47.7166 313.094C44.244 318.567 41.3602 322.923 41.2823 322.871Z" fill="#E0E0E0"/>
<path d="M47.3182 350.981C47.4924 350.769 47.6899 350.577 47.9071 350.409L49.5785 348.946C50.9814 347.699 52.9213 345.975 54.991 343.992C57.0607 342.009 58.8793 340.156 60.187 338.796L61.7371 337.194C61.9122 336.983 62.113 336.794 62.3347 336.631C62.1895 336.864 62.0212 337.082 61.8324 337.281C61.4947 337.688 60.9664 338.259 60.3689 338.961C59.1132 340.364 57.3205 342.252 55.2335 344.235C53.1464 346.218 51.1979 347.924 49.743 349.119C49.0156 349.717 48.4181 350.193 48.011 350.505C47.8017 350.693 47.5688 350.853 47.3182 350.981Z" fill="#E0E0E0"/>
<path d="M29.1237 344.668C29.3751 344.696 29.6222 344.754 29.8598 344.841L31.8256 345.447C33.4796 345.967 35.7659 346.712 38.2773 347.552C40.7887 348.392 43.0576 349.18 44.703 349.76L46.6342 350.47C46.8769 350.542 47.1096 350.644 47.327 350.773C47.0759 350.739 46.8292 350.678 46.5909 350.591L44.6251 349.994C42.9623 349.466 40.6848 348.721 38.1647 347.881C35.6446 347.041 33.3844 346.261 31.7476 345.673L29.8165 344.971C29.5755 344.895 29.3433 344.793 29.1237 344.668Z" fill="#E0E0E0"/>
<path d="M31.2972 370.12C31.618 370.17 31.9339 370.248 32.2412 370.353L34.7612 371.116C36.8916 371.774 39.8187 372.709 43.0575 373.714C46.2964 374.718 49.2061 375.731 51.3105 376.45L53.8046 377.316C54.1038 377.411 54.3936 377.532 54.6706 377.68C54.3487 377.635 54.0324 377.556 53.7266 377.446L51.2412 376.71C49.1109 376.052 46.1838 375.116 42.9449 374.112C39.7061 373.107 36.7963 372.094 34.692 371.375L32.1979 370.509C31.8841 370.413 31.582 370.283 31.2972 370.12Z" fill="#E0E0E0"/>
<path d="M54.1943 377.386C54.4127 377.115 54.6563 376.865 54.9218 376.641L56.9742 374.701C58.7062 373.056 61.079 370.787 63.6424 368.197C66.2058 365.608 68.4574 363.218 70.0768 361.468L71.9993 359.39C72.2227 359.126 72.469 358.883 72.7354 358.663C72.546 358.95 72.3347 359.222 72.1032 359.477C71.6789 359.996 71.0467 360.732 70.2586 361.624C68.6825 363.417 66.4482 365.842 63.8849 368.431C61.3215 371.02 58.8881 373.246 57.1561 374.883C56.2901 375.671 55.5366 376.312 55.0257 376.745C54.766 376.98 54.488 377.194 54.1943 377.386Z" fill="#E0E0E0"/>
<path d="M365.582 394.16C347.63 384.227 340.884 362.118 338.796 341.706C338.45 338.294 337.619 334.778 338.727 331.583C339.836 328.387 343.057 325.876 346.114 326.915C348.634 327.781 350.054 330.561 351.7 332.804C353.843 335.754 356.78 338.033 360.169 339.377C362.343 340.243 364.932 340.563 366.768 339.117C369.288 337.117 369.063 333.055 368.596 329.66L365.946 310.807C365.469 307.43 364.993 303.983 365.547 300.649C366.101 297.315 367.868 294.033 370.743 292.725C373.618 291.418 377.593 292.725 378.667 295.964C378.975 297.346 379.195 298.746 379.325 300.156C379.602 301.541 380.416 303.005 381.715 303.23C383.014 303.455 384.166 302.364 384.972 301.204C387.777 297.341 389.397 292.647 390.869 287.997C392.341 283.347 393.753 278.601 396.212 274.479C398.672 270.357 402.361 266.841 406.838 265.949C411.315 265.057 416.546 267.369 418.321 271.924C420.097 276.479 418.165 281.71 415.853 285.953C412.472 292.189 408.211 297.905 403.201 302.927C402.194 303.737 401.467 304.842 401.123 306.088C400.741 308.426 403.036 310.418 405.219 310.842C407.678 311.353 410.198 310.738 412.701 310.712C415.204 310.686 418.027 311.474 419.291 313.838C421.023 317.103 418.841 321.096 416.503 323.832C411.875 329.273 406.318 333.85 400.092 337.35C397.892 338.58 395.554 339.715 393.917 341.68C392.281 343.646 391.553 346.876 393.008 349.093C394.463 351.31 397.468 351.691 399.832 350.825C402.196 349.959 404.162 348.297 406.379 347.041C410.475 344.694 416.122 344.244 419.438 347.864C421.621 350.245 422.279 353.926 421.777 357.164C421.149 360.372 419.905 363.428 418.113 366.162C412.337 375.844 404.379 384.097 394.818 389.215C385.257 394.333 376.069 396.628 365.547 394.091" fill="#F5F5F5"/>
<path d="M368.777 380.745C370.435 369.259 372.719 357.871 375.619 346.634C376.372 343.655 377.117 340.702 377.844 337.8C378.572 334.899 379.308 332.024 380.191 329.262C381.879 323.979 383.848 318.79 386.089 313.717C388.193 308.876 390.358 304.364 392.41 300.164C394.463 295.964 396.455 292.084 398.412 288.638C401.461 283.204 404.936 278.021 408.804 273.136C410.155 271.404 411.246 270.123 411.999 269.257L412.865 268.278C412.959 268.162 413.064 268.055 413.177 267.958C413.1 268.085 413.013 268.207 412.917 268.321L412.095 269.343C411.376 270.209 410.311 271.56 408.986 273.301C405.21 278.238 401.806 283.448 398.802 288.889C396.87 292.353 394.913 296.224 392.869 300.424C390.826 304.624 388.661 309.162 386.582 313.977C384.362 319.034 382.411 324.206 380.737 329.469C379.871 332.223 379.143 335.072 378.407 337.974C377.671 340.875 376.935 343.828 376.182 346.807C373.291 358.019 370.996 369.377 369.306 380.832" fill="#E0E0E0"/>
<path d="M380.356 329.219C380.138 328.773 379.97 328.306 379.854 327.824C379.559 326.915 379.178 325.581 378.728 323.927C377.862 320.628 376.736 316.029 375.549 310.937C374.363 305.845 373.203 301.29 372.259 298.017C371.791 296.38 371.393 295.055 371.124 294.146C370.953 293.679 370.826 293.198 370.743 292.708C370.993 293.136 371.191 293.592 371.332 294.068C371.678 294.934 372.137 296.259 372.648 297.887C373.696 301.143 374.926 305.681 376.112 310.799C377.299 315.917 378.329 320.325 379.126 323.789C379.498 325.356 379.819 326.673 380.07 327.729C380.211 328.216 380.307 328.714 380.356 329.219Z" fill="#E0E0E0"/>
<path d="M419.846 315.51C419.33 315.708 418.797 315.853 418.252 315.943C417.222 316.185 415.732 316.532 413.922 317.017C410.268 317.961 405.262 319.45 399.798 321.347C394.333 323.243 389.484 325.218 386.002 326.75C384.27 327.495 382.867 328.145 381.897 328.586C381.409 328.842 380.899 329.053 380.373 329.219C380.817 328.879 381.296 328.588 381.802 328.353C382.737 327.842 384.114 327.132 385.838 326.326C390.332 324.229 394.93 322.365 399.616 320.74C404.272 319.088 409.016 317.694 413.827 316.566C415.671 316.142 417.178 315.865 418.226 315.7C418.758 315.582 419.301 315.519 419.846 315.51Z" fill="#E0E0E0"/>
<path d="M369.167 379.871C369.167 379.871 369.029 379.715 368.812 379.386L367.946 377.905C367.167 376.623 366.075 374.735 364.768 372.389C362.17 367.686 358.706 361.07 354.999 353.726C351.293 346.383 347.915 339.732 345.387 334.977L342.373 329.366L341.559 327.824C341.449 327.653 341.365 327.466 341.308 327.27C341.447 327.418 341.567 327.584 341.663 327.764L342.529 329.236C343.308 330.518 344.399 332.405 345.707 334.761C348.305 339.463 351.769 346.071 355.476 353.423C359.182 360.776 362.559 367.409 365.088 372.163L368.102 377.784L368.916 379.308C369.023 379.484 369.107 379.673 369.167 379.871Z" fill="#E0E0E0"/>
<path d="M420.59 353.856C420.438 353.983 420.269 354.088 420.088 354.168L418.598 354.938L413.082 357.736C408.432 360.1 402.049 363.443 395 367.149C387.951 370.856 381.534 374.138 376.814 376.398C374.467 377.532 372.562 378.424 371.228 378.996L369.695 379.663C369.34 379.81 369.15 379.879 369.141 379.853C369.295 379.731 369.464 379.629 369.643 379.55L371.133 378.771L376.641 375.974C381.282 373.609 387.673 370.267 394.723 366.56C401.772 362.854 408.189 359.572 412.909 357.311C415.256 356.186 417.169 355.285 418.503 354.713L420.036 354.046C420.211 353.957 420.397 353.893 420.59 353.856Z" fill="#E0E0E0"/>
<path d="M419.776 414.251C419.776 414.381 328.37 414.485 215.643 414.485C102.915 414.485 11.4918 414.381 11.4918 414.251C11.4918 414.121 102.881 414.026 215.643 414.026C328.405 414.026 419.776 414.13 419.776 414.251Z" fill="#263238"/>
<path d="M366.621 190.858H61.2955C54.327 190.858 48.6779 196.507 48.6779 203.476V396.836C48.6779 403.805 54.327 409.454 61.2955 409.454H366.621C373.59 409.454 379.239 403.805 379.239 396.836V203.476C379.239 196.507 373.59 190.858 366.621 190.858Z" fill="#455A64"/>
<path d="M35.7571 395.338H393.9V399.373C393.9 403.374 392.311 407.212 389.482 410.041C386.652 412.87 382.815 414.459 378.814 414.459H50.8428C46.8418 414.459 43.0047 412.87 40.1756 410.041C37.3465 407.212 35.7571 403.374 35.7571 399.373V395.338Z" fill="#455A64"/>
<path d="M369.436 199.544H57.5457V384.149H369.436V199.544Z" fill="#263238"/>
<path d="M181.366 393.294L185.818 400.361H248.351L252.474 393.294H181.366Z" fill="#263238"/>
<path d="M360.827 205.796H66.8031C65.2392 205.796 63.9713 207.064 63.9713 208.628V380.728C63.9713 382.292 65.2392 383.56 66.8031 383.56H360.827C362.391 383.56 363.659 382.292 363.659 380.728V208.628C363.659 207.064 362.391 205.796 360.827 205.796Z" fill="#EBEBEB"/>
<path d="M363.339 383.82H63.6509L63.9713 219.081H363.339V383.82Z" fill="#FAFAFA"/>
<path d="M88.5485 212.664C88.5468 213.136 88.4052 213.598 88.1415 213.989C87.8778 214.381 87.5039 214.686 87.067 214.866C86.6301 215.046 86.1498 215.092 85.6868 214.998C85.2237 214.905 84.7986 214.677 84.4652 214.342C84.1318 214.008 83.905 213.582 83.8135 213.118C83.722 212.655 83.7698 212.175 83.951 211.739C84.1321 211.302 84.4385 210.93 84.8313 210.667C85.2242 210.405 85.686 210.265 86.1583 210.265C86.4729 210.265 86.7845 210.327 87.075 210.448C87.3656 210.569 87.6294 210.745 87.8515 210.968C88.0736 211.191 88.2494 211.456 88.369 211.747C88.4887 212.038 88.5496 212.349 88.5485 212.664Z" fill="#263238"/>
<path d="M74.0429 212.664C74.0429 213.139 73.902 213.603 73.638 213.998C73.374 214.392 72.9989 214.7 72.56 214.881C72.1212 215.062 71.6384 215.109 71.1729 215.016C70.7073 214.923 70.2799 214.693 69.9448 214.357C69.6096 214.021 69.3819 213.593 69.2903 213.127C69.1987 212.661 69.2474 212.178 69.4303 211.74C69.6132 211.302 69.922 210.928 70.3177 210.665C70.7133 210.403 71.1779 210.263 71.6527 210.265C71.9673 210.265 72.2788 210.327 72.5694 210.448C72.86 210.569 73.1238 210.745 73.3459 210.968C73.568 211.191 73.7438 211.456 73.8634 211.747C73.983 212.038 74.044 212.349 74.0429 212.664Z" fill="#263238"/>
<path d="M81.0055 212.664C81.0038 213.136 80.8622 213.598 80.5985 213.989C80.3348 214.381 79.9609 214.686 79.5241 214.866C79.0872 215.046 78.6069 215.092 78.1438 214.998C77.6807 214.905 77.2556 214.677 76.9222 214.342C76.5888 214.008 76.362 213.582 76.2705 213.118C76.179 212.655 76.2268 212.175 76.408 211.739C76.5891 211.302 76.8955 210.93 77.2884 210.667C77.6812 210.405 78.143 210.265 78.6154 210.265C78.93 210.265 79.2415 210.327 79.532 210.448C79.8226 210.569 80.0865 210.745 80.3085 210.968C80.5306 211.191 80.7065 211.456 80.8261 211.747C80.9457 212.038 81.0067 212.349 81.0055 212.664Z" fill="#263238"/>
<path d="M376.398 393.294C376.398 393.407 303.031 393.502 212.542 393.502C122.054 393.502 48.6779 393.407 48.6779 393.294C48.6779 393.182 122.028 393.078 212.542 393.078C303.057 393.078 376.398 393.164 376.398 393.294Z" fill="#263238"/>
<path d="M331.773 290.006C327.597 293.607 324.498 298.291 322.816 303.542C321.135 308.793 320.938 314.406 322.247 319.762C318.342 318.992 314.307 319.192 310.498 320.346C306.688 321.499 303.22 323.571 300.398 326.378C297.576 329.185 295.487 332.643 294.313 336.447C293.14 340.25 292.919 344.284 293.669 348.193C285.087 342.287 271.967 344.495 265.793 352.895C265.663 347.353 265.446 341.507 262.537 336.788C259.627 332.068 253.011 329.158 248.343 332.155C250.112 330.139 251.187 327.608 251.408 324.935C251.63 322.263 250.988 319.589 249.575 317.31C248.163 315.03 246.055 313.264 243.563 312.273C241.071 311.282 238.326 311.117 235.734 311.804C235.604 305.153 231.404 258.06 227.94 218.328H198.357C194.893 257.367 190.936 302.208 190.806 308.695C188.206 307.993 185.45 308.15 182.947 309.14C180.443 310.131 178.326 311.903 176.911 314.193C175.495 316.483 174.856 319.169 175.09 321.851C175.323 324.534 176.416 327.069 178.205 329.08C173.538 326.084 166.947 329.002 164.012 333.713C161.076 338.425 160.877 344.279 160.747 349.821C154.572 341.43 141.461 339.213 132.87 345.119C133.621 341.21 133.399 337.176 132.226 333.372C131.053 329.569 128.964 326.111 126.142 323.304C123.32 320.496 119.852 318.425 116.042 317.271C112.232 316.118 108.198 315.917 104.292 316.688C105.68 311.332 105.519 305.692 103.828 300.424C102.136 295.156 98.9846 290.476 94.7387 286.929C90.4927 283.381 85.3271 281.112 79.8423 280.384C74.3575 279.657 68.7788 280.501 63.7549 282.819V383.734H362.785V285.876C357.738 283.634 352.169 282.833 346.696 283.562C341.222 284.291 336.057 286.522 331.773 290.006Z" fill="#9CC90E"/>
<g opacity="0.8">
<path d="M331.773 290.006C327.597 293.607 324.498 298.291 322.816 303.542C321.135 308.793 320.938 314.406 322.247 319.762C318.342 318.992 314.307 319.192 310.498 320.346C306.688 321.499 303.22 323.571 300.398 326.378C297.576 329.185 295.487 332.643 294.313 336.447C293.14 340.25 292.919 344.284 293.669 348.193C285.087 342.287 271.967 344.495 265.793 352.895C265.663 347.353 265.446 341.507 262.537 336.788C259.627 332.068 253.011 329.158 248.343 332.155C250.112 330.139 251.187 327.608 251.408 324.935C251.63 322.263 250.988 319.589 249.575 317.31C248.163 315.03 246.055 313.264 243.563 312.273C241.071 311.282 238.326 311.117 235.734 311.804C235.604 305.153 231.404 258.06 227.94 218.328H198.357C194.893 257.367 190.936 302.208 190.806 308.695C188.206 307.993 185.45 308.15 182.947 309.14C180.443 310.131 178.326 311.903 176.911 314.193C175.495 316.483 174.856 319.169 175.09 321.851C175.323 324.534 176.416 327.069 178.205 329.08C173.538 326.084 166.947 329.002 164.012 333.713C161.076 338.425 160.877 344.279 160.747 349.821C154.572 341.43 141.461 339.213 132.87 345.119C133.621 341.21 133.399 337.176 132.226 333.372C131.053 329.569 128.964 326.111 126.142 323.304C123.32 320.496 119.852 318.425 116.042 317.271C112.232 316.118 108.198 315.917 104.292 316.688C105.68 311.332 105.519 305.692 103.828 300.424C102.136 295.156 98.9846 290.476 94.7387 286.929C90.4927 283.381 85.3271 281.112 79.8423 280.384C74.3575 279.657 68.7788 280.501 63.7549 282.819V383.734H362.785V285.876C357.738 283.634 352.169 282.833 346.696 283.562C341.222 284.291 336.057 286.522 331.773 290.006Z" fill="white"/>
</g>
<path d="M329.946 363.582C324.58 359.977 318.531 357.512 312.173 356.338C305.816 355.165 299.285 355.308 292.985 356.759C286.686 358.211 280.751 360.939 275.548 364.776C270.344 368.613 265.984 373.476 262.736 379.066C260.105 375.511 256.668 372.632 252.707 370.666C252.988 369.919 253.222 369.155 253.409 368.379C254.175 365.062 254.082 361.603 253.138 358.331C252.194 355.06 250.43 352.083 248.014 349.684C245.598 347.284 242.61 345.541 239.332 344.619C236.054 343.698 232.595 343.628 229.282 344.417L220.432 218.328H208.827V334.276C201.639 335.376 196.625 343.889 199.163 350.73C196.659 351.12 194.287 352.112 192.25 353.62C190.214 355.128 188.574 357.109 187.472 359.39C186.779 360.88 186.675 364.032 187.272 367.6C182.891 367.68 178.586 368.758 174.684 370.752C170.783 372.747 167.387 375.605 164.756 379.109C161.508 373.52 157.148 368.656 151.945 364.819C146.741 360.982 140.806 358.254 134.507 356.803C128.207 355.351 121.676 355.208 115.319 356.381C108.962 357.555 102.913 360.02 97.5462 363.625C94.5065 348.903 78.0439 338.442 63.4258 341.975V384.002L198.34 383.829C199.267 384.093 200.225 384.227 201.189 384.227L234.166 383.838L364.127 384.002V341.897C349.474 338.399 333.012 348.86 329.946 363.582Z" fill="#9CC90E"/>
<g opacity="0.6">
<path d="M329.946 363.582C324.58 359.977 318.531 357.512 312.173 356.338C305.816 355.165 299.285 355.308 292.985 356.759C286.686 358.211 280.751 360.939 275.548 364.776C270.344 368.613 265.984 373.476 262.736 379.066C260.105 375.511 256.668 372.632 252.707 370.666C252.988 369.919 253.222 369.155 253.409 368.379C254.175 365.062 254.082 361.603 253.138 358.331C252.194 355.06 250.43 352.083 248.014 349.684C245.598 347.284 242.61 345.541 239.332 344.619C236.054 343.698 232.595 343.628 229.282 344.417L220.432 218.328H208.827V334.276C201.639 335.376 196.625 343.889 199.163 350.73C196.659 351.12 194.287 352.112 192.25 353.62C190.214 355.128 188.574 357.109 187.472 359.39C186.779 360.88 186.675 364.032 187.272 367.6C182.891 367.68 178.586 368.758 174.684 370.752C170.783 372.747 167.387 375.605 164.756 379.109C161.508 373.52 157.148 368.656 151.945 364.819C146.741 360.982 140.806 358.254 134.507 356.803C128.207 355.351 121.676 355.208 115.319 356.381C108.962 357.555 102.913 360.02 97.5462 363.625C94.5065 348.903 78.0439 338.442 63.4258 341.975V384.002L198.34 383.829C199.267 384.093 200.225 384.227 201.189 384.227L234.166 383.838L364.127 384.002V341.897C349.474 338.399 333.012 348.86 329.946 363.582Z" fill="white"/>
</g>
<path d="M201.994 178.855C195.344 182.016 192.33 191.126 195.794 197.63C197.162 200.228 199.396 202.453 199.691 205.346C200.141 209.78 195.95 213.244 194.651 217.47C193.992 220.003 194.338 222.692 195.616 224.976C196.894 227.26 199.006 228.961 201.51 229.724C203.787 230.321 206.515 230.217 208.039 232.01C209.988 234.296 208.576 238.072 210.247 240.592C211.746 242.852 215.253 242.965 217.513 241.458C219.773 239.951 221.021 237.345 221.912 234.781C222.804 232.218 223.471 229.525 225.013 227.29C226.745 224.84 229.299 223.16 231.361 221.003C236.314 215.807 237.83 208.013 236.712 200.903C235.595 193.793 232.157 187.29 228.269 181.254" fill="#9CC90E"/>
<g opacity="0.3">
<path d="M201.994 178.855C195.344 182.016 192.33 191.126 195.794 197.63C197.162 200.228 199.396 202.453 199.691 205.346C200.141 209.78 195.95 213.244 194.651 217.47C193.992 220.003 194.338 222.692 195.616 224.976C196.894 227.26 199.006 228.961 201.51 229.724C203.787 230.321 206.515 230.217 208.039 232.01C209.988 234.296 208.576 238.072 210.247 240.592C211.746 242.852 215.253 242.965 217.513 241.458C219.773 239.951 221.021 237.345 221.912 234.781C222.804 232.218 223.471 229.525 225.013 227.29C226.745 224.84 229.299 223.16 231.361 221.003C236.314 215.807 237.83 208.013 236.712 200.903C235.595 193.793 232.157 187.29 228.269 181.254" fill="white"/>
</g>
<path d="M207.84 182.596C202.202 185.082 199.734 192.902 202.921 198.184C204.87 201.406 208.645 204.315 207.727 207.961C207.104 210.438 204.454 211.954 203.692 214.387C202.679 217.626 205.744 221.064 209.122 221.471C212.499 221.878 215.755 220.077 218.31 217.834C227.152 210.04 229.308 194.798 223.792 184.397" fill="#9CC90E"/>
<path d="M236.903 133.026C236.903 133.026 265.862 152.182 262.701 185.324L236.08 173.373L236.903 133.026Z" fill="#9CC90E"/>
<path d="M188.788 172.707L195.37 183.609H229.499L236.08 173.33L188.788 172.707Z" fill="#263238"/>
<path d="M210.663 62.6983C204.169 63.1335 198.092 66.0545 193.695 70.8541C189.299 75.6538 186.921 81.963 187.056 88.4705L188.788 173.338H236.08L237.656 88.4272C237.723 84.9216 237.06 81.4405 235.711 78.2045C234.361 74.9685 232.353 72.0484 229.815 69.6293C227.277 67.2102 224.264 65.3449 220.967 64.1518C217.67 62.9586 214.161 62.4637 210.663 62.6983Z" fill="#9CC90E"/>
<g opacity="0.8">
<path d="M210.663 62.6983C204.169 63.1335 198.092 66.0545 193.695 70.8541C189.299 75.6538 186.921 81.963 187.056 88.4705L188.788 173.338H236.08L237.656 88.4272C237.723 84.9216 237.06 81.4405 235.711 78.2045C234.361 74.9685 232.353 72.0484 229.815 69.6293C227.277 67.2102 224.264 65.3449 220.967 64.1518C217.67 62.9586 214.161 62.4637 210.663 62.6983Z" fill="white"/>
</g>
<path d="M187.922 133.026C187.922 133.026 158.998 152.182 162.167 185.324L188.788 173.356L187.922 133.026Z" fill="#9CC90E"/>
<path d="M187.316 85.656C197.318 76.9008 228.711 77.0913 237.137 84.2185C234.972 52.7134 210.914 40.9185 210.914 40.9185C186.303 57.9613 187.316 85.656 187.316 85.656Z" fill="#9CC90E"/>
<path d="M210.914 40.9272L211.2 41.187C211.382 41.3602 211.659 41.6114 212.005 41.9491L213.322 43.1962L214.188 43.9929L215.054 44.9628C215.677 45.6469 216.387 46.4004 217.141 47.249L219.444 50.1242C219.834 50.6524 220.224 51.224 220.631 51.7955C221.038 52.3671 221.497 52.956 221.861 53.6055C222.631 54.8872 223.489 56.2035 224.225 57.719C225.914 60.94 227.225 64.3459 228.13 67.8685C228.641 69.827 229.02 71.8175 229.265 73.8266C229.412 74.8658 229.49 75.9223 229.637 76.9702C229.731 78.0586 229.769 79.1513 229.75 80.2437C229.75 89.0336 229.637 98.6981 229.525 108.822C229.282 129.121 228.996 147.489 228.78 160.782C228.667 167.424 228.572 172.802 228.503 176.526C228.503 178.379 228.433 179.825 228.416 180.856C228.416 181.34 228.416 181.722 228.416 181.964C228.416 182.206 228.416 182.345 228.416 182.345C228.416 182.345 228.416 182.215 228.416 181.964C228.416 181.713 228.416 181.34 228.416 180.856C228.416 179.868 228.416 178.422 228.459 176.526C228.503 172.802 228.572 167.424 228.65 160.782C228.823 147.471 229.057 129.103 229.325 108.822C229.438 98.6721 229.568 89.0076 229.568 80.2437C229.592 79.1628 229.554 78.0814 229.455 77.0048C229.317 75.9396 229.239 74.8918 229.1 73.8612C228.858 71.858 228.482 69.8733 227.975 67.9205C227.08 64.4128 225.787 61.0191 224.121 57.8056C223.341 56.2901 222.484 54.9738 221.696 53.6921C221.315 53.0426 220.83 52.471 220.475 51.8821C220.12 51.2933 219.696 50.739 219.306 50.2108L217.02 47.327C216.275 46.461 215.573 45.7249 214.95 45.0321L214.084 44.0535L213.261 43.2481L211.962 41.9838L211.174 41.2044L210.914 40.9272Z" fill="#263238"/>
<path d="M221.974 107.117C223.461 100.382 219.593 93.8025 213.335 92.4208C207.077 91.0391 200.798 95.3785 199.311 102.113C197.825 108.848 201.693 115.427 207.951 116.809C214.209 118.191 220.488 113.851 221.974 107.117Z" fill="#FAFAFA"/>
<path d="M213.33 92.4195C213.264 92.4291 213.197 92.4291 213.131 92.4195L212.568 92.3416L212.153 92.2723H211.642H211.053C210.836 92.2723 210.611 92.2723 210.377 92.2723C209.851 92.3051 209.327 92.3745 208.81 92.4801C208.195 92.6105 207.593 92.793 207.009 93.0257C205.583 93.5947 204.278 94.4293 203.164 95.4852C201.813 96.7597 200.758 98.3145 200.072 100.04C199.881 100.511 199.722 100.994 199.596 101.487C199.535 101.738 199.457 101.989 199.397 102.24L199.267 103.019L199.197 103.418V103.816C199.197 104.085 199.154 104.362 199.137 104.63C199.119 104.899 199.137 105.176 199.137 105.453V105.868L199.18 106.293C199.408 108.646 200.31 110.883 201.778 112.736C203.324 114.75 205.53 116.154 208.009 116.702C210.488 117.25 213.08 116.907 215.331 115.732C217.432 114.655 219.181 113 220.371 110.961L220.588 110.606L220.769 110.224L221.133 109.488L221.419 108.726L221.557 108.345L221.67 107.956L221.878 107.193C221.939 106.942 221.964 106.683 222.016 106.431C222.104 105.93 222.161 105.424 222.19 104.916C222.305 103.061 222.009 101.204 221.324 99.4774C220.531 97.4562 219.198 95.6917 217.47 94.3767C217.044 94.0598 216.599 93.7705 216.136 93.5107C215.92 93.4068 215.729 93.2855 215.539 93.1989L214.993 92.9738L214.517 92.7832L214.119 92.662L213.564 92.4975C213.501 92.4813 213.44 92.458 213.382 92.4282H213.573L214.127 92.5667L214.543 92.6793L215.019 92.8612L215.573 93.0777L216.18 93.3808C216.654 93.6395 217.111 93.9288 217.548 94.2468C218.054 94.6299 218.532 95.0495 218.977 95.5025C220.054 96.6201 220.907 97.9343 221.488 99.3735C222.204 101.12 222.52 103.005 222.415 104.89C222.394 105.407 222.339 105.922 222.25 106.431C222.198 106.691 222.172 106.951 222.112 107.211C222.051 107.471 221.973 107.73 221.895 107.99L221.791 108.38L221.653 108.761L221.358 109.54L220.995 110.294L220.813 110.683L220.588 111.047C219.385 113.131 217.605 114.822 215.461 115.914C213.162 117.121 210.51 117.476 207.975 116.916C205.439 116.357 203.183 114.919 201.605 112.857C200.123 110.959 199.221 108.674 199.007 106.276V105.851V105.427C199.007 105.15 199.007 104.864 199.007 104.561C199.007 104.258 199.007 104.007 199.076 103.695V103.288L199.137 102.881C199.189 102.621 199.232 102.353 199.275 102.093C199.319 101.833 199.414 101.582 199.483 101.322C199.611 100.823 199.776 100.333 199.977 99.8585C200.674 98.1041 201.754 96.5273 203.138 95.2427C204.273 94.1825 205.602 93.3505 207.052 92.7919C207.645 92.5616 208.256 92.382 208.879 92.255C209.402 92.1549 209.932 92.0913 210.464 92.0645C210.706 92.0645 210.932 92.0645 211.148 92.0645H211.746H212.257L212.672 92.1424L213.235 92.2463L213.33 92.4195Z" fill="#263238"/>
<path d="M198.678 102.742C198.678 102.89 196.01 102.82 192.798 103.401C189.585 103.981 187.108 104.951 187.056 104.812C187.533 104.466 188.066 104.205 188.632 104.041C191.284 103.046 194.096 102.547 196.928 102.569C197.517 102.532 198.108 102.59 198.678 102.742Z" fill="#263238"/>
<path d="M236.912 102.725C236.197 102.73 235.483 102.663 234.781 102.526C233.482 102.37 231.681 102.162 229.689 102.015C227.697 101.868 225.887 101.833 224.571 101.807C223.86 101.845 223.146 101.813 222.441 101.712C223.133 101.532 223.847 101.45 224.562 101.469C226.294 101.391 228.029 101.414 229.758 101.539C231.472 101.658 233.178 101.875 234.868 102.188C235.569 102.282 236.255 102.462 236.912 102.725Z" fill="#263238"/>
<path d="M237.171 151.29C237.005 151.313 236.836 151.313 236.669 151.29L235.24 151.178L229.984 150.779C225.55 150.467 219.41 150.164 212.664 150.173C205.918 150.182 199.743 150.493 195.3 150.814L190.052 151.23L188.623 151.333C188.457 151.358 188.288 151.358 188.121 151.333C188.28 151.277 188.446 151.242 188.615 151.23L190.035 151.03C191.265 150.866 193.057 150.667 195.231 150.467C199.665 150.052 205.822 149.688 212.62 149.679C219.418 149.671 225.61 150.026 230.001 150.433C232.227 150.632 234.011 150.822 235.249 150.987L236.669 151.178C236.841 151.192 237.01 151.23 237.171 151.29Z" fill="#263238"/>
<path d="M199.933 114.91C199.933 114.979 199.639 115.005 199.44 115.343C199.382 115.429 199.344 115.528 199.327 115.631C199.311 115.734 199.317 115.839 199.345 115.94C199.389 116.047 199.463 116.138 199.559 116.202C199.654 116.267 199.766 116.302 199.882 116.304C199.997 116.321 200.116 116.304 200.222 116.255C200.328 116.206 200.418 116.126 200.479 116.027C200.522 115.931 200.544 115.828 200.544 115.724C200.544 115.619 200.522 115.516 200.479 115.42C200.332 115.057 200.046 114.987 200.063 114.918C200.081 114.849 200.462 114.788 200.782 115.256C200.873 115.396 200.929 115.554 200.947 115.72C200.965 115.885 200.944 116.053 200.886 116.209C200.799 116.403 200.652 116.564 200.466 116.668C200.281 116.773 200.067 116.815 199.856 116.789C199.673 116.779 199.498 116.718 199.349 116.613C199.2 116.508 199.083 116.363 199.012 116.195C198.942 116.027 198.92 115.842 198.95 115.663C198.98 115.483 199.059 115.315 199.18 115.178C199.561 114.719 199.968 114.849 199.933 114.91Z" fill="#263238"/>
<path d="M210.239 120.46C210.239 120.538 209.944 120.564 209.745 120.902C209.689 120.988 209.652 121.085 209.635 121.186C209.619 121.288 209.624 121.392 209.65 121.491C209.692 121.6 209.765 121.694 209.861 121.76C209.957 121.826 210.07 121.862 210.187 121.863C210.304 121.879 210.422 121.86 210.528 121.809C210.634 121.759 210.723 121.678 210.784 121.578C210.825 121.483 210.846 121.382 210.846 121.279C210.846 121.176 210.825 121.074 210.784 120.98C210.629 120.616 210.343 120.547 210.36 120.478C210.377 120.409 210.758 120.348 211.079 120.816C211.169 120.954 211.226 121.111 211.244 121.275C211.262 121.439 211.241 121.605 211.183 121.759C211.096 121.954 210.949 122.117 210.764 122.222C210.579 122.328 210.364 122.372 210.152 122.348C209.962 122.346 209.776 122.288 209.618 122.18C209.461 122.073 209.338 121.922 209.266 121.745C209.194 121.569 209.176 121.375 209.213 121.188C209.251 121.001 209.342 120.829 209.477 120.694C209.867 120.279 210.274 120.374 210.239 120.46Z" fill="#263238"/>
<path d="M221.609 115.723C221.609 115.801 221.324 115.827 221.116 116.165C221.06 116.251 221.022 116.348 221.006 116.449C220.989 116.551 220.995 116.655 221.021 116.754C221.066 116.862 221.141 116.955 221.238 117.021C221.335 117.087 221.449 117.124 221.566 117.126C221.682 117.143 221.8 117.125 221.905 117.074C222.01 117.023 222.097 116.942 222.155 116.84C222.196 116.746 222.217 116.644 222.217 116.542C222.217 116.439 222.196 116.337 222.155 116.243C222.008 115.879 221.713 115.81 221.731 115.732C221.748 115.654 222.129 115.611 222.449 116.078C222.543 116.215 222.603 116.372 222.622 116.536C222.642 116.701 222.621 116.868 222.562 117.022C222.471 117.216 222.323 117.377 222.137 117.483C221.95 117.588 221.736 117.633 221.523 117.611C221.31 117.602 221.106 117.526 220.94 117.394C220.773 117.262 220.653 117.08 220.596 116.875C220.562 116.713 220.567 116.545 220.611 116.386C220.654 116.226 220.735 116.079 220.847 115.957C221.237 115.541 221.644 115.671 221.609 115.723Z" fill="#263238"/>
<path d="M225.307 107.228C225.307 107.297 225.013 107.323 224.805 107.661C224.75 107.749 224.714 107.848 224.699 107.951C224.684 108.054 224.691 108.158 224.718 108.259C224.76 108.367 224.834 108.461 224.929 108.527C225.025 108.594 225.139 108.63 225.255 108.631C225.37 108.646 225.488 108.627 225.592 108.576C225.697 108.525 225.784 108.445 225.844 108.345C225.885 108.251 225.906 108.149 225.906 108.046C225.906 107.944 225.885 107.842 225.844 107.748C225.697 107.384 225.411 107.306 225.42 107.237C225.428 107.167 225.818 107.115 226.147 107.583C226.238 107.721 226.295 107.878 226.313 108.042C226.331 108.207 226.31 108.373 226.251 108.527C226.163 108.72 226.015 108.881 225.83 108.985C225.645 109.089 225.432 109.132 225.221 109.107C225.007 109.099 224.801 109.023 224.633 108.891C224.465 108.759 224.344 108.577 224.285 108.371C224.252 108.209 224.257 108.042 224.301 107.882C224.344 107.722 224.425 107.575 224.536 107.453C224.926 107.046 225.333 107.176 225.307 107.228Z" fill="#263238"/>
<path d="M196.175 106.405C196.175 106.475 195.881 106.5 195.681 106.838C195.626 106.926 195.588 107.024 195.572 107.127C195.556 107.23 195.56 107.335 195.586 107.436C195.629 107.544 195.703 107.637 195.798 107.703C195.894 107.77 196.007 107.806 196.123 107.808C196.239 107.821 196.357 107.802 196.463 107.751C196.569 107.701 196.658 107.621 196.721 107.522C196.763 107.429 196.786 107.327 196.786 107.224C196.786 107.121 196.763 107.019 196.721 106.925C196.573 106.561 196.288 106.483 196.305 106.414C196.322 106.345 196.703 106.293 197.024 106.76C197.115 106.898 197.172 107.056 197.19 107.22C197.208 107.384 197.187 107.55 197.128 107.704C197.04 107.898 196.893 108.059 196.708 108.164C196.522 108.268 196.308 108.311 196.097 108.284C195.883 108.276 195.678 108.2 195.51 108.068C195.342 107.936 195.22 107.754 195.162 107.548C195.128 107.386 195.134 107.217 195.179 107.058C195.224 106.898 195.308 106.751 195.422 106.63C195.803 106.223 196.21 106.353 196.175 106.405Z" fill="#263238"/>
<path d="M221.592 94.749C221.592 94.6798 221.887 94.6538 222.086 94.316C222.144 94.2291 222.182 94.1308 222.199 94.0276C222.215 93.9245 222.209 93.8191 222.181 93.7185C222.136 93.6116 222.062 93.5198 221.967 93.4538C221.872 93.3878 221.76 93.3504 221.644 93.3461C221.529 93.3313 221.412 93.3504 221.307 93.4012C221.202 93.452 221.115 93.5321 221.055 93.6319C221.01 93.725 220.987 93.8272 220.987 93.9307C220.987 94.0342 221.01 94.1363 221.055 94.2294C221.202 94.5932 221.488 94.6711 221.471 94.7404C221.454 94.8097 221.073 94.8616 220.752 94.394C220.661 94.2562 220.604 94.0987 220.586 93.9346C220.568 93.7704 220.589 93.6043 220.648 93.45C220.735 93.2559 220.883 93.0948 221.068 92.9904C221.254 92.886 221.468 92.8437 221.679 92.8698C221.869 92.8722 222.055 92.9306 222.213 93.0379C222.37 93.1452 222.493 93.2965 222.565 93.473C222.637 93.6494 222.655 93.8432 222.618 94.0301C222.58 94.217 222.489 94.3888 222.354 94.5239C221.965 94.9396 221.558 94.801 221.592 94.749Z" fill="#263238"/>
<path d="M210.221 89.709C210.221 89.6397 210.516 89.6137 210.715 89.276C210.771 89.1882 210.808 89.0899 210.825 88.9871C210.841 88.8843 210.836 88.7793 210.81 88.6785C210.764 88.5709 210.688 88.4788 210.592 88.4128C210.495 88.3468 210.382 88.3098 210.265 88.3061C210.149 88.2913 210.032 88.3104 209.928 88.3612C209.823 88.4119 209.736 88.4921 209.676 88.5919C209.635 88.6862 209.614 88.7879 209.614 88.8906C209.614 88.9934 209.635 89.0951 209.676 89.1894C209.823 89.5618 210.118 89.6311 210.1 89.7003C210.083 89.7696 209.702 89.8302 209.381 89.3539C209.267 89.2003 209.2 89.0159 209.191 88.8243C209.182 88.6327 209.23 88.4427 209.33 88.2788C209.429 88.1149 209.576 87.9845 209.75 87.9045C209.925 87.8245 210.119 87.7985 210.308 87.8298C210.521 87.8386 210.725 87.9146 210.891 88.0469C211.058 88.1792 211.178 88.3609 211.235 88.5659C211.268 88.7279 211.263 88.8955 211.219 89.055C211.176 89.2146 211.095 89.3615 210.984 89.4838C210.594 89.8995 210.187 89.7696 210.221 89.709Z" fill="#263238"/>
<path d="M198.981 94.749C198.981 94.6798 199.275 94.6538 199.474 94.316C199.53 94.2282 199.567 94.1299 199.584 94.0271C199.6 93.9244 199.595 93.8193 199.57 93.7185C199.524 93.611 199.448 93.5188 199.351 93.4528C199.254 93.3869 199.141 93.3499 199.024 93.3461C198.909 93.3313 198.792 93.3504 198.687 93.4012C198.582 93.452 198.495 93.5321 198.435 93.6319C198.394 93.7262 198.373 93.8279 198.373 93.9307C198.373 94.0334 198.394 94.1351 198.435 94.2294C198.582 94.5932 198.877 94.6711 198.86 94.7404C198.842 94.8097 198.461 94.8616 198.141 94.394C198.026 94.2404 197.96 94.0559 197.95 93.8643C197.941 93.6727 197.989 93.4827 198.089 93.3188C198.189 93.1549 198.335 93.0246 198.509 92.9446C198.684 92.8645 198.878 92.8385 199.067 92.8698C199.28 92.8786 199.484 92.9547 199.651 93.0869C199.817 93.2192 199.937 93.4009 199.994 93.6059C200.028 93.7679 200.022 93.9355 199.979 94.0951C199.935 94.2546 199.854 94.4016 199.743 94.5239C199.353 94.9396 198.946 94.801 198.981 94.749Z" fill="#263238"/>
<path d="M208.784 136.507L209.797 187.177C209.813 187.881 210.107 188.549 210.615 189.036C211.124 189.523 211.804 189.789 212.508 189.775C213.192 189.76 213.844 189.481 214.328 188.997C214.812 188.513 215.09 187.861 215.106 187.177C215.21 178.05 215.547 147.341 215.599 136.456C215.601 135.964 215.497 135.479 215.293 135.032C215.089 134.585 214.791 134.187 214.419 133.866C214.047 133.545 213.61 133.309 213.138 133.173C212.666 133.037 212.171 133.004 211.685 133.078C210.868 133.202 210.124 133.617 209.591 134.248C209.057 134.879 208.77 135.682 208.784 136.507Z" fill="#9CC90E"/>
<g opacity="0.3">
<path d="M208.784 136.507L209.797 187.177C209.813 187.881 210.107 188.549 210.615 189.036C211.124 189.523 211.804 189.789 212.508 189.775C213.192 189.76 213.844 189.481 214.328 188.997C214.812 188.513 215.09 187.861 215.106 187.177C215.21 178.05 215.547 147.341 215.599 136.456C215.601 135.964 215.497 135.479 215.293 135.032C215.089 134.585 214.791 134.187 214.419 133.866C214.047 133.545 213.61 133.309 213.138 133.173C212.666 133.037 212.171 133.004 211.685 133.078C210.868 133.202 210.124 133.617 209.591 134.248C209.057 134.879 208.77 135.682 208.784 136.507Z" fill="black"/>
</g>
<path d="M210.351 43.8196C210.499 43.9928 208.819 45.6209 206.368 48.4787C205.138 49.899 203.77 51.6656 202.324 53.6747C200.786 55.8793 199.369 58.1661 198.08 60.5248C196.824 62.8975 195.699 65.3375 194.711 67.8338C193.845 70.146 193.109 72.2677 192.598 74.0777C191.568 77.6976 191.135 80.0011 190.866 79.9665C190.598 79.9318 190.771 77.5763 191.568 73.8265C192.045 71.6352 192.664 69.4772 193.421 67.3662C194.359 64.7801 195.476 62.2626 196.764 59.832C198.087 57.4272 199.568 55.1127 201.198 52.904C202.543 51.108 204.004 49.4012 205.571 47.7946C208.299 45.032 210.239 43.6897 210.351 43.8196Z" fill="white"/>
<path d="M186.857 138.066C186.995 138.283 184.597 139.798 181.254 142.933L179.964 144.163C179.513 144.596 179.098 145.089 178.63 145.566C177.686 146.518 176.803 147.644 175.841 148.796C173.835 151.357 172.053 154.086 170.515 156.954C169.017 159.845 167.765 162.858 166.774 165.96C166.367 167.398 165.908 168.766 165.683 170.074C165.545 170.732 165.38 171.355 165.276 171.97C165.172 172.585 165.077 173.165 164.99 173.702C164.315 178.214 164.376 181.063 164.124 181.072C164.02 181.072 163.925 180.37 163.839 179.071C163.839 178.742 163.795 178.378 163.778 177.989C163.761 177.599 163.778 177.166 163.778 176.707C163.785 175.663 163.845 174.619 163.96 173.581C164.02 173.001 164.09 172.394 164.159 171.762C164.228 171.13 164.376 170.481 164.488 169.814C164.705 168.454 165.094 167.043 165.484 165.553C167.322 159.093 170.493 153.09 174.793 147.93C175.726 146.807 176.715 145.732 177.755 144.708C178.24 144.232 178.699 143.747 179.175 143.331L180.561 142.145C181.355 141.463 182.185 140.825 183.046 140.231C183.419 139.963 183.765 139.703 184.094 139.486L185.021 138.932C186.19 138.3 186.796 137.98 186.857 138.066Z" fill="white"/>
<path d="M149.584 303.282C148.419 302.621 147.485 301.619 146.907 300.411C146.329 299.203 146.136 297.847 146.353 296.525C146.57 295.204 147.187 293.981 148.121 293.021C149.055 292.061 150.261 291.411 151.576 291.158C153.949 290.69 156.919 291.365 158.409 289.426C159.768 287.694 158.746 285.407 159.344 282.636C159.942 279.865 162.323 278.557 164.947 278.592C166.262 278.668 167.537 279.077 168.652 279.78C169.766 280.482 170.685 281.456 171.321 282.61C172.726 285.176 173.36 288.093 173.148 291.01C172.447 296.994 169.251 300.06 165.276 302.598C161.301 305.135 153.776 305.715 149.584 303.23" fill="#9CC90E"/>
<g opacity="0.8">
<path d="M149.584 303.282C148.419 302.621 147.485 301.619 146.907 300.411C146.329 299.203 146.136 297.847 146.353 296.525C146.57 295.204 147.187 293.981 148.121 293.021C149.055 292.061 150.261 291.411 151.576 291.158C153.949 290.69 156.919 291.365 158.409 289.426C159.768 287.694 158.746 285.407 159.344 282.636C159.942 279.865 162.323 278.557 164.947 278.592C166.262 278.668 167.537 279.077 168.652 279.78C169.766 280.482 170.685 281.456 171.321 282.61C172.726 285.176 173.36 288.093 173.148 291.01C172.447 296.994 169.251 300.06 165.276 302.598C161.301 305.135 153.776 305.715 149.584 303.23" fill="white"/>
</g>
<path d="M246.741 255.314C247.706 253.468 249.212 251.961 251.058 250.995C252.904 250.029 255.001 249.65 257.068 249.909C259.135 250.168 261.073 251.053 262.623 252.444C264.173 253.836 265.261 255.668 265.741 257.695C266.607 261.376 265.741 266.035 268.798 268.261C271.578 270.278 275.094 268.538 279.458 269.3C283.823 270.062 286.005 273.699 286.101 277.804C286.196 281.909 283.684 285.806 280.212 287.988C276.294 290.332 271.785 291.499 267.222 291.348C257.843 290.612 252.863 285.806 248.663 279.761C244.463 273.716 243.112 261.999 246.741 255.314Z" fill="#9CC90E"/>
<g opacity="0.8">
<path d="M246.741 255.314C247.706 253.468 249.212 251.961 251.058 250.995C252.904 250.029 255.001 249.65 257.068 249.909C259.135 250.168 261.073 251.053 262.623 252.444C264.173 253.836 265.261 255.668 265.741 257.695C266.607 261.376 265.741 266.035 268.798 268.261C271.578 270.278 275.094 268.538 279.458 269.3C283.823 270.062 286.005 273.699 286.101 277.804C286.196 281.909 283.684 285.806 280.212 287.988C276.294 290.332 271.785 291.499 267.222 291.348C257.843 290.612 252.863 285.806 248.663 279.761C244.463 273.716 243.112 261.999 246.741 255.314Z" fill="white"/>
</g>
<path d="M176.759 243.034C175.715 243.571 174.84 244.385 174.228 245.387C173.617 246.39 173.294 247.541 173.295 248.715C173.339 250.019 173.802 251.274 174.616 252.294C175.43 253.314 176.551 254.044 177.813 254.375C179.074 254.707 180.41 254.623 181.62 254.135C182.83 253.648 183.85 252.783 184.53 251.669C185.209 250.555 185.511 249.251 185.39 247.952C185.269 246.653 184.733 245.427 183.86 244.458C182.987 243.488 181.825 242.825 180.546 242.569C179.266 242.312 177.938 242.476 176.759 243.034Z" fill="#9CC90E"/>
<g opacity="0.8">
<path d="M176.759 243.034C175.715 243.571 174.84 244.385 174.228 245.387C173.617 246.39 173.294 247.541 173.295 248.715C173.339 250.019 173.802 251.274 174.616 252.294C175.43 253.314 176.551 254.044 177.813 254.375C179.074 254.707 180.41 254.623 181.62 254.135C182.83 253.648 183.85 252.783 184.53 251.669C185.209 250.555 185.511 249.251 185.39 247.952C185.269 246.653 184.733 245.427 183.86 244.458C182.987 243.488 181.825 242.825 180.546 242.569C179.266 242.312 177.938 242.476 176.759 243.034Z" fill="white"/>
</g>
<path d="M268.832 315.657C268.312 315.927 267.875 316.335 267.57 316.835C267.265 317.336 267.102 317.911 267.1 318.497C267.121 319.152 267.352 319.782 267.76 320.294C268.168 320.806 268.73 321.173 269.363 321.341C269.996 321.508 270.666 321.466 271.273 321.221C271.881 320.977 272.393 320.543 272.734 319.984C273.075 319.425 273.226 318.771 273.165 318.119C273.104 317.467 272.834 316.852 272.396 316.366C271.958 315.88 271.374 315.548 270.732 315.42C270.09 315.292 269.424 315.375 268.832 315.657Z" fill="#9CC90E"/>
<g opacity="0.8">
<path d="M268.832 315.657C268.312 315.927 267.875 316.335 267.57 316.835C267.265 317.336 267.102 317.911 267.1 318.497C267.121 319.152 267.352 319.782 267.76 320.294C268.168 320.806 268.73 321.173 269.363 321.341C269.996 321.508 270.666 321.466 271.273 321.221C271.881 320.977 272.393 320.543 272.734 319.984C273.075 319.425 273.226 318.771 273.165 318.119C273.104 317.467 272.834 316.852 272.396 316.366C271.958 315.88 271.374 315.548 270.732 315.42C270.09 315.292 269.424 315.375 268.832 315.657Z" fill="white"/>
</g>
<path d="M244.714 291.955H190.884C181.442 291.955 173.789 299.608 173.789 309.049V311.448C173.789 320.889 181.442 328.543 190.884 328.543H244.714C254.155 328.543 261.809 320.889 261.809 311.448V309.049C261.809 299.608 254.155 291.955 244.714 291.955Z" fill="#9CC90E"/>
<path d="M200.107 312.669L200.704 311.344C201.439 311.855 202.312 312.133 203.207 312.141C204.246 312.141 204.67 311.794 204.67 311.327C204.67 309.907 200.254 310.877 200.254 308.062C200.254 306.772 201.302 305.698 203.458 305.698C204.368 305.684 205.265 305.915 206.056 306.365L205.519 307.698C204.879 307.325 204.155 307.123 203.415 307.109C202.367 307.109 201.968 307.499 201.968 307.975C201.968 309.37 206.385 308.408 206.385 311.197C206.385 312.461 205.329 313.552 203.164 313.552C202.079 313.572 201.014 313.264 200.107 312.669Z" fill="white"/>
<path d="M209.087 307.257H206.654V305.828H213.27V307.257H210.845V313.423H209.113L209.087 307.257Z" fill="white"/>
<path d="M218.83 311.76H215.305L214.638 313.388H212.837L216.214 305.793H217.946L221.341 313.388H219.496L218.83 311.76ZM218.275 310.427L217.072 307.517L215.868 310.427H218.275Z" fill="white"/>
<path d="M226.979 313.423L225.506 311.301H223.896V313.423H222.164V305.828H225.454C227.481 305.828 228.745 306.876 228.745 308.582C228.765 309.094 228.626 309.6 228.347 310.029C228.068 310.459 227.662 310.791 227.186 310.981L228.918 313.423H226.979ZM225.324 307.257H223.896V309.907H225.324C226.398 309.907 226.944 309.405 226.944 308.582C226.944 307.759 226.398 307.257 225.324 307.257Z" fill="white"/>
<path d="M231.568 307.257H229.144V305.828H235.76V307.257H233.326V313.423H231.594L231.568 307.257Z" fill="white"/>
<path d="M350.886 397.277L361.122 400.871L361.009 410.709C356.108 412.095 355.424 414.571 355.424 414.571L365.668 414.337L374.58 396.212L367.53 391.605L354.35 385.837" fill="#9CC90E"/>
<g opacity="0.6">
<path d="M374.579 396.212L365.668 414.337L355.424 414.571L356.541 413.004L364.863 412.354L373.081 395.233L374.579 396.212Z" fill="white"/>
</g>
<path d="M360.975 406.206C361.053 406.31 361.633 405.955 362.43 405.963C363.226 405.972 363.806 406.284 363.884 406.18C363.962 406.076 363.391 405.496 362.43 405.513C361.468 405.53 360.879 406.154 360.975 406.206Z" fill="#263238"/>
<path d="M361.122 403.764C361.226 403.833 361.668 403.218 362.482 403.036C363.296 402.854 363.954 403.218 364.014 403.114C364.075 403.01 363.928 402.898 363.642 402.742C363.249 402.555 362.806 402.506 362.382 402.601C361.958 402.697 361.578 402.933 361.304 403.27C361.07 403.556 361.035 403.729 361.122 403.764Z" fill="#263238"/>
<path d="M360.949 400.629C361.061 400.681 361.399 400.083 362.109 399.823C362.819 399.564 363.46 399.78 363.512 399.659C363.564 399.538 363.399 399.468 363.114 399.373C362.733 399.244 362.319 399.251 361.943 399.393C361.567 399.535 361.252 399.804 361.053 400.152C360.905 400.412 360.897 400.611 360.949 400.629Z" fill="#263238"/>
<path d="M360.195 400.62C360.325 400.62 360.247 399.944 360.55 399.252C360.854 398.559 361.356 398.16 361.295 398.048C361.235 397.935 360.499 398.221 360.135 399.078C359.771 399.936 360.083 400.68 360.195 400.62Z" fill="#263238"/>
<path d="M358.983 399.468C359.134 399.024 359.216 398.56 359.225 398.091C359.269 397.598 359.312 397.104 359.364 396.593C359.408 396.277 359.408 395.956 359.364 395.64C359.311 395.431 359.181 395.248 359 395.129C358.896 395.061 358.774 395.025 358.65 395.025C358.525 395.025 358.403 395.061 358.299 395.129C358.022 395.37 357.82 395.686 357.719 396.039C357.614 396.337 357.553 396.649 357.537 396.965C357.506 397.496 357.598 398.026 357.805 398.515C358.169 399.381 358.671 399.65 358.671 399.615C358.446 399.223 358.243 398.819 358.065 398.403C357.92 397.95 357.867 397.473 357.909 397C357.94 396.725 358.004 396.454 358.1 396.195C358.176 395.932 358.32 395.693 358.515 395.502C358.547 395.479 358.585 395.466 358.624 395.466C358.663 395.466 358.701 395.479 358.732 395.502C358.816 395.556 358.878 395.639 358.905 395.736C358.936 396.006 358.936 396.279 358.905 396.55C358.905 397.061 358.905 397.563 358.862 398.056C358.826 398.53 358.867 399.007 358.983 399.468Z" fill="#263238"/>
<path d="M358.818 399.919C358.862 399.919 358.558 399.442 357.77 399.183C357.238 399.022 356.668 399.036 356.144 399.223C355.62 399.41 355.171 399.76 354.861 400.222C354.838 400.287 354.83 400.357 354.837 400.426C354.845 400.495 354.868 400.561 354.904 400.62C354.968 400.719 355.062 400.795 355.172 400.837C355.328 400.893 355.492 400.925 355.657 400.932C355.945 400.96 356.235 400.96 356.523 400.932C356.989 400.89 357.446 400.773 357.874 400.586C358.61 400.265 358.948 399.893 358.914 399.858C358.879 399.823 358.481 400.066 357.77 400.291C357.355 400.424 356.924 400.5 356.489 400.516C356.238 400.538 355.986 400.538 355.735 400.516C355.617 400.508 355.501 400.484 355.389 400.447C355.302 400.395 355.328 400.404 355.328 400.378C355.376 400.283 355.444 400.2 355.527 400.135C355.62 400.045 355.722 399.963 355.831 399.893C356.032 399.752 356.254 399.643 356.489 399.572C356.89 399.45 357.316 399.43 357.727 399.512C358.1 399.621 358.465 399.757 358.818 399.919Z" fill="#263238"/>
<g opacity="0.6">
<path d="M366.405 396.091C366.408 396.25 366.443 396.407 366.507 396.553C366.571 396.698 366.663 396.83 366.778 396.94C366.893 397.051 367.029 397.137 367.177 397.195C367.325 397.253 367.484 397.281 367.643 397.277C367.802 397.274 367.959 397.239 368.105 397.175C368.251 397.111 368.382 397.019 368.493 396.904C368.603 396.789 368.689 396.653 368.747 396.505C368.805 396.356 368.833 396.198 368.829 396.039C368.826 395.88 368.791 395.723 368.727 395.577C368.663 395.431 368.571 395.299 368.456 395.189C368.341 395.079 368.205 394.992 368.057 394.935C367.909 394.877 367.75 394.849 367.591 394.852C367.432 394.856 367.275 394.89 367.129 394.955C366.983 395.019 366.851 395.111 366.741 395.226C366.631 395.341 366.545 395.476 366.487 395.625C366.429 395.773 366.401 395.931 366.405 396.091Z" fill="white"/>
</g>
<path d="M298.372 393.164L298.51 406.569C298.51 406.569 284.923 411.22 284.706 413.696L310.686 414.363L311.327 393.458L298.372 393.164Z" fill="#9CC90E"/>
<g opacity="0.6">
<path d="M306.564 405.651C306.811 405.735 307.019 405.906 307.149 406.133C307.278 406.36 307.319 406.626 307.265 406.881C307.191 407.131 307.024 407.343 306.799 407.475C306.574 407.607 306.307 407.648 306.053 407.591C305.791 407.502 305.57 407.32 305.433 407.079C305.295 406.838 305.251 406.555 305.308 406.284C305.412 406.029 305.611 405.824 305.863 405.713C306.115 405.601 306.4 405.592 306.659 405.686" fill="white"/>
</g>
<g opacity="0.6">
<path d="M310.721 414.364V412.25L285.789 412.406C285.789 412.406 284.611 412.874 284.723 413.697L310.721 414.364Z" fill="white"/>
</g>
<path d="M298.086 406.431C298.086 406.552 298.727 406.63 299.341 407.054C299.956 407.479 300.268 408.024 300.389 407.972C300.511 407.92 300.337 407.184 299.584 406.691C298.831 406.197 298.068 406.31 298.086 406.431Z" fill="#263238"/>
<path d="M295.306 407.488C295.306 407.609 295.817 407.843 296.233 408.354C296.648 408.865 296.761 409.471 296.891 409.471C297.021 409.471 297.116 408.752 296.588 408.077C296.059 407.401 295.306 407.366 295.306 407.488Z" fill="#263238"/>
<path d="M293.695 410.709C293.816 410.709 294.007 410.112 293.695 409.41C293.383 408.709 292.829 408.414 292.743 408.544C292.656 408.674 293.046 409.029 293.297 409.609C293.548 410.189 293.574 410.7 293.695 410.709Z" fill="#263238"/>
<path d="M298.398 403.365C298.449 403.487 299.03 403.365 299.748 403.365C300.467 403.365 301.022 403.677 301.091 403.565C301.16 403.452 300.632 402.993 299.783 402.924C298.934 402.854 298.337 403.27 298.398 403.365Z" fill="#263238"/>
<g opacity="0.3">
<path d="M298.397 395.814L298.423 398.204L311.206 398.421L311.275 396.264L298.397 395.814Z" fill="black"/>
</g>
<path d="M298.415 400.663C298.843 400.783 299.295 400.783 299.722 400.663C300.192 400.593 300.652 400.465 301.091 400.282C301.353 400.173 301.608 400.046 301.853 399.901C302.002 399.827 302.137 399.728 302.251 399.607C302.337 399.519 302.392 399.405 302.406 399.282C302.42 399.16 302.393 399.037 302.329 398.931C302.267 398.843 302.186 398.769 302.091 398.717C301.997 398.664 301.892 398.634 301.784 398.628C301.617 398.625 301.452 398.643 301.29 398.68C301.011 398.741 300.738 398.828 300.476 398.94C300.032 399.126 299.62 399.38 299.255 399.693C298.631 400.239 298.389 400.707 298.458 400.733C298.527 400.759 298.822 400.386 299.445 399.945C299.808 399.685 300.204 399.475 300.623 399.321C300.868 399.228 301.12 399.156 301.377 399.105C301.654 399.044 301.887 399.044 301.957 399.174C302.026 399.304 301.957 399.234 301.957 399.312C301.872 399.401 301.772 399.475 301.662 399.529C301.428 399.676 301.195 399.797 300.97 399.91C300.558 400.095 300.133 400.246 299.696 400.36C299.262 400.427 298.833 400.528 298.415 400.663Z" fill="#263238"/>
<path d="M298.58 400.854C298.831 400.484 298.961 400.045 298.952 399.598C298.991 399.117 298.944 398.634 298.813 398.169C298.74 397.893 298.635 397.626 298.502 397.373C298.436 397.198 298.327 397.044 298.184 396.924C298.042 396.804 297.871 396.723 297.688 396.688C297.571 396.688 297.456 396.721 297.358 396.784C297.26 396.847 297.182 396.937 297.133 397.044C297.064 397.193 297.015 397.35 296.986 397.511C296.945 397.798 296.945 398.09 296.986 398.377C297.041 398.867 297.219 399.335 297.506 399.737C297.999 400.421 298.519 400.603 298.536 400.542C298.554 400.482 298.138 400.222 297.765 399.564C297.553 399.185 297.423 398.766 297.384 398.334C297.365 398.082 297.379 397.828 297.428 397.58C297.48 397.303 297.584 397.087 297.688 397.113C297.791 397.139 298.034 397.329 298.138 397.554C298.257 397.783 298.358 398.02 298.441 398.265C298.573 398.688 298.646 399.128 298.657 399.572C298.657 400.36 298.51 400.828 298.58 400.854Z" fill="#263238"/>
<path d="M358.836 386.331L328.881 375.194L360.368 370.769L361.953 355.432L303.074 360.568L294.76 372.544L296.943 387.561L354.315 402.144L358.836 386.331Z" fill="#263238"/>
<path d="M295.306 397.061L292.439 342.243C292.517 339.618 293.265 337.056 294.611 334.801C295.956 332.546 297.856 330.672 300.13 329.357C302.019 328.261 304.119 327.58 306.291 327.358C308.463 327.135 310.658 327.377 312.73 328.066L350.929 340.805L371.895 346.2C371.895 346.2 375.472 355.008 373.367 361.849C371.315 368.552 363.971 373.012 357.511 371.098C349.483 368.716 312.643 352.912 312.643 352.912V397.494L295.306 397.061Z" fill="#263238"/>
<path d="M356.974 371.237L356.749 371.167L356.09 370.916L353.588 369.912L344.399 366.162L314.133 353.674L312.591 353.033L312.842 352.869C312.842 365.278 312.799 376.424 312.782 384.504C312.782 388.513 312.782 391.761 312.73 394.03C312.73 395.129 312.73 395.995 312.73 396.628C312.73 396.905 312.73 397.13 312.73 397.294C312.743 397.372 312.743 397.451 312.73 397.528C312.722 397.451 312.722 397.372 312.73 397.294V396.628C312.73 396.013 312.73 395.147 312.73 394.03C312.73 391.761 312.73 388.513 312.678 384.504C312.678 376.424 312.678 365.278 312.626 352.869V352.609L312.868 352.704L314.41 353.345L344.633 365.928L353.64 369.782L356.116 370.847L356.757 371.133L356.974 371.237Z" fill="#455A64"/>
<path d="M321.693 371.306C324.463 371.791 326.991 373.191 328.872 375.281C328.794 375.359 327.434 374.095 325.408 372.995C323.382 371.895 321.658 371.41 321.693 371.306Z" fill="#455A64"/>
<path d="M309.335 345.456C310.158 346.605 310.838 347.85 311.362 349.163C311.987 350.428 312.464 351.762 312.782 353.137C312.686 353.137 311.985 351.405 311.05 349.31C310.114 347.214 309.248 345.534 309.335 345.456Z" fill="#455A64"/>
<path d="M309.422 321.303L302.667 320.039L295.574 327.278L296.882 331.894L305.152 328.846L309.422 321.303Z" fill="#FFBE9D"/>
<path d="M247.009 304.78L254.691 303.048L267.057 304.979L266.581 312.868C266.581 312.868 262.744 313.423 261.385 312.972C260.566 312.704 259.685 312.686 258.856 312.92C258.856 312.92 259.609 314.47 258.31 314.722C257.011 314.973 254.89 315.518 254.491 313.682C254.165 313.702 253.842 313.608 253.578 313.415C253.314 313.222 253.125 312.943 253.045 312.626C253.045 312.626 252.041 312.99 251.59 311.232C251.14 309.474 251.4 306.832 254.872 305.992C255.054 305.949 255.141 305.533 254.794 305.551L249.304 306.581C249.304 306.581 245.615 306.746 247.009 304.78Z" fill="#FFBE9D"/>
<path d="M253.547 310.279C253.972 310.148 254.411 310.069 254.855 310.045C255.337 309.972 255.823 309.929 256.31 309.915C256.475 309.918 256.637 309.956 256.786 310.026C256.936 310.096 257.068 310.197 257.176 310.322C257.283 310.476 257.345 310.656 257.354 310.843C257.363 311.03 257.319 311.215 257.228 311.379C257.047 311.638 256.814 311.858 256.545 312.023C256.275 312.188 255.974 312.296 255.66 312.34C255.194 312.472 254.719 312.577 254.24 312.652C253.8 312.738 253.347 312.738 252.906 312.652C253.331 312.536 253.762 312.447 254.197 312.383C254.595 312.297 255.063 312.175 255.574 312.011C255.834 311.946 256.088 311.862 256.336 311.76C256.584 311.64 256.792 311.451 256.933 311.214C256.998 311.108 257.032 310.987 257.032 310.863C257.032 310.74 256.998 310.618 256.933 310.513C256.771 310.332 256.544 310.223 256.301 310.209C255.808 310.209 255.297 310.261 254.89 310.27C254.444 310.329 253.993 310.332 253.547 310.279Z" fill="#9CC90E"/>
<path d="M254.864 308.582C254.864 308.677 254.483 308.876 254.188 309.335C253.894 309.794 253.851 310.244 253.755 310.253C253.66 310.262 253.539 309.699 253.911 309.145C254.284 308.59 254.864 308.495 254.864 308.582Z" fill="#9CC90E"/>
<path d="M256.977 311.396C256.977 311.396 257.055 311.396 257.176 311.396C257.297 311.396 257.436 311.647 257.54 311.812C257.621 311.939 257.675 312.081 257.698 312.231C257.72 312.38 257.71 312.532 257.67 312.678C257.608 312.851 257.502 313.004 257.362 313.123C257.222 313.241 257.053 313.321 256.873 313.353C256.321 313.525 255.756 313.652 255.184 313.734C254.742 313.778 254.465 313.734 254.465 313.691C254.465 313.648 254.734 313.604 255.149 313.5C255.565 313.396 256.137 313.215 256.778 313.041C256.909 313.021 257.032 312.968 257.138 312.888C257.244 312.808 257.328 312.703 257.384 312.582C257.468 312.374 257.468 312.141 257.384 311.933C257.28 311.716 257.245 311.578 257.159 311.509C257.072 311.439 256.959 311.413 256.977 311.396Z" fill="#9CC90E"/>
<path d="M257.488 312.739C257.488 312.739 257.574 312.583 257.817 312.548C258.122 312.528 258.426 312.607 258.683 312.773C258.814 312.865 258.923 312.987 258.999 313.128C259.076 313.27 259.119 313.427 259.125 313.587C259.125 313.812 259.125 313.951 259.047 313.951C258.969 313.951 258.96 313.821 258.891 313.631C258.83 313.403 258.696 313.202 258.51 313.059C258.302 312.923 258.069 312.829 257.826 312.782C257.635 312.747 257.514 312.782 257.488 312.739Z" fill="#9CC90E"/>
<path d="M261.316 306.607L257.852 307.984L254.604 310.287C254.604 310.287 254.604 311.084 256.449 310.79C257.609 310.595 258.717 310.165 259.705 309.525C259.705 309.525 262.121 311.05 264.26 310.694" fill="#FFBE9D"/>
<path d="M264.225 310.694C264.225 310.694 264.113 310.738 263.887 310.781C263.559 310.817 263.228 310.817 262.9 310.781C261.729 310.637 260.602 310.247 259.592 309.638H259.748C258.538 310.455 257.128 310.928 255.669 311.006C255.422 311.014 255.176 310.979 254.942 310.902C254.802 310.861 254.677 310.78 254.582 310.669C254.487 310.559 254.425 310.423 254.405 310.279V310.201L254.474 310.149L257.765 307.863C258.83 307.456 259.705 307.127 260.32 306.91C260.632 306.777 260.957 306.675 261.289 306.607C260.998 306.785 260.691 306.936 260.372 307.057C259.774 307.317 258.917 307.681 257.86 308.114L254.604 310.443L254.673 310.305C254.673 310.409 254.82 310.556 254.994 310.617C255.192 310.682 255.4 310.712 255.609 310.703C257.003 310.624 258.352 310.183 259.523 309.421L259.609 309.369H259.687C260.657 309.975 261.732 310.389 262.857 310.591C263.31 310.658 263.767 310.692 264.225 310.694Z" fill="#9CC90E"/>
<path d="M256.275 306.434C256.275 306.529 255.868 306.521 255.47 306.278C255.072 306.036 254.873 305.681 254.942 305.629C255.011 305.577 255.288 305.785 255.635 305.992C255.981 306.2 256.336 306.347 256.275 306.434Z" fill="#9CC90E"/>
<path d="M266.39 314.955L295.713 319.216C298.626 320.136 301.784 319.872 304.503 318.48L330.621 305.083L322.827 287.841C321.819 288.186 320.835 288.6 319.883 289.079L298.398 304.563L267.222 303.472L266.39 314.955Z" fill="#9CC90E"/>
<path d="M371.332 346.071L369.461 342.789L349.474 337.783L351.83 341.853L371.332 346.071Z" fill="#FFBE9D"/>
<path d="M322.801 287.841C322.801 288.533 319.866 310.235 319.866 314.687C319.866 319.138 328.353 323.927 328.353 323.927L337.645 343.663H370.752L359.433 322.411L354.315 305.386C352.375 298.943 352.583 295.609 347.777 290.889L338.519 284.654L322.801 287.841Z" fill="#9CC90E"/>
<path d="M332.414 304.97L337.974 328.3L309.933 320.42L305.152 328.872L341.637 345.482C343.818 346.474 346.278 346.671 348.589 346.038C350.901 345.405 352.917 343.983 354.289 342.018C355.137 340.805 355.713 339.424 355.978 337.968C356.242 336.512 356.189 335.016 355.822 333.583L347.656 301.671C347.391 300.63 346.914 299.656 346.255 298.808C345.596 297.96 344.769 297.258 343.826 296.745C342.883 296.232 341.844 295.919 340.774 295.826C339.705 295.734 338.627 295.863 337.61 296.206C335.836 296.801 334.336 298.013 333.382 299.622C332.428 301.231 332.084 303.129 332.414 304.97Z" fill="#9CC90E"/>
<path d="M328.872 325.009C328.63 324.566 328.34 324.15 328.006 323.771C327.798 323.667 327.504 323.511 327.14 323.295C326.068 322.691 325.041 322.011 324.066 321.26C322.572 320.171 321.336 318.767 320.446 317.146C319.58 315.206 319.58 312.816 319.935 310.478C320.29 308.14 320.801 305.923 321.043 303.888C321.286 301.853 321.572 300.025 321.684 298.484C321.797 296.942 321.823 295.687 321.823 294.821C321.823 293.955 321.823 293.47 321.823 293.47C321.858 293.582 321.879 293.698 321.884 293.816C321.884 294.041 321.935 294.379 321.961 294.812C322.025 296.041 322.025 297.272 321.961 298.501C321.884 300.051 321.693 301.905 321.399 303.94C321.104 305.975 320.654 308.192 320.316 310.53C319.978 312.868 319.935 315.163 320.766 317.008C321.62 318.589 322.801 319.971 324.23 321.06C325.186 321.823 326.183 322.531 327.218 323.182C327.871 323.691 328.431 324.309 328.872 325.009Z" fill="#263238"/>
<path d="M340.026 286.195C339.881 286.407 339.71 286.6 339.515 286.767C339.177 287.113 338.649 287.633 338.034 288.196C336.761 289.382 334.951 290.976 332.838 292.638C330.725 294.301 328.82 295.721 327.382 296.709C326.664 297.202 326.075 297.575 325.65 297.843C325.444 297.994 325.22 298.119 324.984 298.215C325.163 298.035 325.361 297.872 325.573 297.73L327.227 296.501C328.621 295.47 330.543 294.024 332.613 292.361C334.683 290.699 336.51 289.148 337.809 288.031L339.368 286.68C339.567 286.493 339.788 286.33 340.026 286.195Z" fill="#263238"/>
<path d="M332.414 304.97C332.475 305.116 332.521 305.266 332.553 305.421C332.639 305.744 332.752 306.177 332.89 306.72C333.185 307.889 333.592 309.534 334.103 311.586C335.116 315.761 336.528 321.58 338.138 328.257L338.208 328.543L337.93 328.465L330.812 326.482L309.933 320.55L310.08 320.489L306.538 326.638L305.551 328.3L305.291 328.725C305.23 328.829 305.196 328.872 305.187 328.872C305.204 328.815 305.227 328.759 305.256 328.707L305.49 328.266L306.408 326.534L309.872 320.324L309.924 320.238H310.019L330.925 326.075L338.078 328.101L337.861 328.3C336.294 321.615 334.925 315.787 333.938 311.604C333.471 309.543 333.072 307.88 332.83 306.711C332.708 306.157 332.613 305.724 332.544 305.395C332.49 305.257 332.446 305.115 332.414 304.97Z" fill="#263238"/>
<path d="M347.777 303.516C347.841 303.645 347.887 303.781 347.915 303.923C348.002 304.226 348.106 304.607 348.245 305.083L349.37 309.413C350.297 313.085 351.57 318.073 352.964 323.624C353.648 326.404 354.324 329.045 354.895 331.47C355.464 333.615 355.643 335.844 355.424 338.052C355.247 339.545 354.712 340.974 353.865 342.217C353.56 342.674 353.18 343.076 352.739 343.404C353.101 343.005 353.437 342.582 353.744 342.139C354.538 340.896 355.03 339.484 355.181 338.017C355.356 335.839 355.151 333.647 354.575 331.539C353.969 329.132 353.311 326.491 352.618 323.745L349.154 309.508L348.132 305.178L347.872 304.001C347.826 303.842 347.795 303.68 347.777 303.516Z" fill="#263238"/>
<g opacity="0.3">
<path d="M352.869 343.646C356.974 344.018 359.355 341.68 359.797 338.45C359.894 336.671 359.58 334.893 358.879 333.254C356.359 325.876 353.813 318.437 349.821 311.734C351.327 318.437 353.285 324.871 354.765 331.574C355.244 333.437 355.456 335.358 355.398 337.281C355.304 339.626 354.412 341.869 352.869 343.637" fill="black"/>
</g>
<path d="M319.208 310.028C318.577 309.493 318.018 308.879 317.545 308.201C316.336 306.622 315.305 304.914 314.471 303.109C313.634 301.3 313.004 299.403 312.591 297.454C312.384 296.653 312.28 295.83 312.28 295.003C312.53 295.782 312.738 296.574 312.903 297.376C313.399 299.277 314.06 301.131 314.878 302.918C315.7 304.699 316.68 306.403 317.805 308.01C318.688 309.283 319.26 310.028 319.208 310.028Z" fill="#FAFAFA"/>
<path d="M311.171 314.817C310.668 314.238 310.227 313.608 309.855 312.938C309.093 311.743 308.123 310.062 307.066 308.166C306.01 306.269 305.161 304.52 304.572 303.238C304.21 302.564 303.919 301.852 303.706 301.117C304.143 301.741 304.52 302.405 304.832 303.1L307.43 307.949C308.426 309.768 309.335 311.413 310.088 312.773C310.509 313.421 310.871 314.105 311.171 314.817Z" fill="#FAFAFA"/>
<path d="M300.112 319.129C299.517 316.851 299.066 314.537 298.761 312.201C298.311 309.887 298.007 307.547 297.852 305.195C298.448 307.474 298.899 309.788 299.203 312.123C299.658 314.436 299.962 316.777 300.112 319.129Z" fill="#FAFAFA"/>
<path d="M290.274 318.463C290.117 317.817 290.042 317.153 290.049 316.488C289.971 315.259 289.928 313.561 289.971 311.682C290.015 309.803 290.144 308.114 290.274 306.893C290.3 306.227 290.407 305.567 290.595 304.927C290.666 305.586 290.666 306.251 290.595 306.91C290.543 308.14 290.474 309.829 290.422 311.691C290.37 313.553 290.37 315.25 290.37 316.48C290.413 317.142 290.381 317.808 290.274 318.463Z" fill="#FAFAFA"/>
<path d="M280.428 304.139C280.582 304.739 280.663 305.356 280.67 305.975C280.757 307.118 280.809 308.703 280.783 310.452C280.757 312.202 280.636 313.786 280.506 314.921C280.484 315.544 280.38 316.161 280.194 316.757C280.064 316.757 280.272 313.925 280.324 310.444C280.376 306.962 280.289 304.148 280.428 304.139Z" fill="#FAFAFA"/>
<path d="M272.34 305.178C272.402 306.943 272.318 308.71 272.088 310.461C272.009 312.224 271.774 313.978 271.387 315.7C271.404 312.172 271.722 308.652 272.34 305.178Z" fill="#FAFAFA"/>
<path d="M321.087 297.168C320.957 297.168 320.437 295.765 319.554 294.119C318.671 292.474 317.822 291.227 317.891 291.149C319.549 292.779 320.665 294.881 321.087 297.168Z" fill="#FAFAFA"/>
<path d="M336.328 320.732C336.11 320.8 335.881 320.826 335.653 320.809C335.032 320.835 334.41 320.821 333.791 320.766C331.743 320.609 329.728 320.16 327.807 319.433C325.881 318.717 324.064 317.735 322.412 316.514C321.912 316.145 321.435 315.746 320.983 315.319C320.662 315.016 320.498 314.843 320.524 314.817C320.55 314.791 321.312 315.388 322.594 316.254C325.963 318.522 329.821 319.961 333.852 320.454C335.359 320.645 336.328 320.654 336.328 320.732Z" fill="#FAFAFA"/>
<path d="M333.168 309.673C332.56 309.7 331.953 309.632 331.366 309.474C329.929 309.202 328.514 308.826 327.131 308.348C325.746 307.876 324.4 307.297 323.105 306.616C322.545 306.374 322.023 306.053 321.554 305.663C321.624 305.542 324.066 306.815 327.279 307.915C330.492 309.015 333.193 309.543 333.168 309.673Z" fill="#FAFAFA"/>
<path d="M331.332 301.723C329.766 301.821 328.199 301.57 326.743 300.987C325.287 300.405 323.979 299.505 322.914 298.354C325.392 300.167 328.287 301.325 331.332 301.723Z" fill="#FAFAFA"/>
<path d="M344.296 296.059C344.252 296.128 343.577 295.669 342.347 295.323C340.745 294.878 339.044 294.942 337.48 295.505C335.926 296.099 334.598 297.169 333.687 298.562C332.977 299.627 332.769 300.415 332.691 300.389C332.766 299.674 333.013 298.988 333.41 298.389C334.291 296.866 335.673 295.697 337.321 295.083C338.969 294.468 340.78 294.446 342.442 295.02C343.134 295.214 343.769 295.571 344.296 296.059Z" fill="#FAFAFA"/>
<path d="M345.828 306.694C345.388 307.06 344.891 307.353 344.356 307.56C341.855 308.645 339.15 309.183 336.424 309.136C335.86 309.169 335.294 309.105 334.752 308.945C334.752 308.807 337.35 308.945 340.381 308.33C343.412 307.716 345.768 306.564 345.828 306.694Z" fill="#FAFAFA"/>
<path d="M350.262 320.039C348.264 320.46 346.238 320.735 344.2 320.861C342.168 321.133 340.119 321.257 338.069 321.234C340.066 320.808 342.093 320.533 344.131 320.411C346.163 320.139 348.212 320.014 350.262 320.039Z" fill="#FAFAFA"/>
<path d="M354.194 338.528C353.957 338.52 353.723 338.473 353.501 338.39C352.886 338.219 352.282 338.014 351.691 337.775C349.732 336.987 347.86 335.997 346.105 334.822C344.36 333.649 342.678 332.386 341.065 331.037C340.366 330.521 339.717 329.941 339.125 329.305C339.859 329.748 340.554 330.252 341.204 330.812C342.494 331.773 344.27 333.116 346.305 334.467C348.041 335.621 349.865 336.637 351.76 337.506C353.241 338.138 354.194 338.459 354.194 338.528Z" fill="#FAFAFA"/>
<path d="M333.176 341.342C333.031 340.698 332.985 340.035 333.038 339.377C333.105 336.188 333.868 333.052 335.272 330.188C335.524 329.579 335.869 329.013 336.294 328.508C335.424 330.545 334.689 332.636 334.094 334.769C333.648 336.939 333.341 339.134 333.176 341.342Z" fill="#FAFAFA"/>
<path d="M322.62 335.687C322.284 332.054 323.395 328.435 325.711 325.616C324.898 327.192 324.193 328.821 323.598 330.491C323.152 332.198 322.825 333.935 322.62 335.687Z" fill="#FAFAFA"/>
<path d="M316.731 321.866C315.513 323.314 314.434 324.874 313.509 326.525C312.719 328.246 312.096 330.038 311.647 331.877C311.588 331.297 311.632 330.71 311.777 330.145C312.037 328.799 312.483 327.497 313.102 326.274C313.722 325.052 314.513 323.923 315.449 322.923C315.814 322.501 316.247 322.144 316.731 321.866Z" fill="#FAFAFA"/>
<path d="M355.631 309.768C354.983 310.578 354.135 311.205 353.171 311.587C352.207 311.97 351.16 312.095 350.132 311.95C350.132 311.812 351.483 311.777 352.999 311.162C354.514 310.547 355.536 309.673 355.631 309.768Z" fill="#FAFAFA"/>
<path d="M351.665 297.618C351.367 298.488 350.8 299.24 350.046 299.766C349.382 300.406 348.528 300.814 347.612 300.926C347.612 300.805 348.652 300.329 349.76 299.411C350.868 298.493 351.596 297.54 351.665 297.618Z" fill="#FAFAFA"/>
<path d="M337.524 289.53C338.292 289.985 338.897 290.669 339.256 291.487C339.745 292.238 339.996 293.119 339.974 294.016C339.844 294.016 339.533 292.933 338.857 291.703C338.182 290.474 337.437 289.616 337.524 289.53Z" fill="#FAFAFA"/>
<path d="M358.524 321.208C357.77 321.884 356.844 322.339 355.848 322.524C354.891 322.847 353.862 322.898 352.878 322.672C352.878 322.542 354.194 322.49 355.735 322.083C357.277 321.676 358.472 321.095 358.524 321.208Z" fill="#FAFAFA"/>
<path d="M364.586 331.869C361.463 332.434 358.294 332.701 355.121 332.665C356.668 332.309 358.245 332.1 359.832 332.042C361.407 331.828 362.999 331.77 364.586 331.869Z" fill="#FAFAFA"/>
<path d="M368.795 340.442C364.148 340.627 359.493 340.511 354.861 340.096C359.508 339.911 364.162 340.026 368.795 340.442Z" fill="#FAFAFA"/>
<path d="M338.147 254.5C338.727 257.436 342.945 258.605 343.343 261.567C343.516 262.831 342.91 264.095 342.962 265.377C343.014 267.109 344.218 268.555 344.824 270.166C346.088 273.491 344.668 277.432 341.992 279.779C339.316 282.125 335.661 283.078 332.111 283.147" fill="#263238"/>
<path d="M314.263 257.531C314.635 259.098 313.812 260.674 312.946 262.034C312.08 263.394 311.102 264.814 311.119 266.416C311.119 269.274 314.289 271.43 314.167 274.279C314.098 275.803 313.076 277.18 313.094 278.713C313.167 279.45 313.398 280.163 313.77 280.804C314.142 281.445 314.646 281.999 315.25 282.428C316.376 283.381 317.467 283.043 318.506 284.1C319.704 285.279 321.135 286.196 322.706 286.793C326.023 287.979 329.314 284.974 330.725 284.307" fill="#263238"/>
<path d="M339.013 256.102C338.822 254.656 337.281 253.755 335.895 253.443C334.51 253.132 332.96 253.166 331.635 252.577C330.534 251.912 329.502 251.14 328.552 250.274C327.272 249.328 325.764 248.74 324.182 248.57C322.599 248.4 321.001 248.655 319.549 249.307C318.098 249.96 316.847 250.987 315.924 252.283C315.001 253.579 314.439 255.097 314.297 256.682C314.107 258.813 314.843 261.177 316.67 262.285C318.792 263.567 321.52 262.779 323.841 261.904C326.161 261.03 328.803 260.12 331.028 261.211C332.302 262.006 333.391 263.063 334.224 264.312C335.159 265.472 336.294 266.633 337.766 266.91C339.238 267.187 341.005 266.044 340.832 264.554" fill="#263238"/>
<path d="M339.515 286.767L336.051 258.717C335.968 258.113 335.661 257.562 335.191 257.172C334.722 256.783 334.123 256.583 333.514 256.613L320.247 255.375C316.09 255.582 314.185 261.038 314.531 265.186C314.956 269.785 315.648 275.396 316.722 278.713C318.87 285.381 324.248 285.433 324.248 285.433C324.248 285.433 325.218 295.306 325.616 297.731" fill="#FFBE9D"/>
<path d="M316.315 270.305C316.329 270.42 316.366 270.531 316.423 270.631C316.481 270.732 316.558 270.82 316.65 270.89C316.742 270.96 316.847 271.011 316.959 271.04C317.071 271.069 317.188 271.075 317.302 271.058C317.529 271.036 317.738 270.926 317.884 270.75C318.03 270.575 318.101 270.35 318.082 270.123C318.068 270.008 318.031 269.897 317.974 269.796C317.916 269.696 317.839 269.608 317.747 269.537C317.655 269.467 317.55 269.416 317.438 269.387C317.326 269.358 317.209 269.352 317.095 269.369C316.868 269.391 316.659 269.502 316.513 269.677C316.367 269.852 316.296 270.077 316.315 270.305Z" fill="#263238"/>
<path d="M316.09 268.572C316.22 268.676 316.809 268.079 317.753 267.932C318.697 267.784 319.485 268.157 319.545 268.018C319.606 267.88 319.441 267.776 319.112 267.603C318.658 267.381 318.147 267.305 317.649 267.386C317.156 267.461 316.701 267.692 316.35 268.044C316.09 268.313 316.003 268.529 316.09 268.572Z" fill="#263238"/>
<path d="M325.833 268.91C325.846 269.024 325.883 269.134 325.94 269.234C325.997 269.334 326.073 269.422 326.164 269.492C326.255 269.562 326.359 269.613 326.47 269.643C326.581 269.672 326.697 269.679 326.811 269.663C327.036 269.641 327.244 269.532 327.39 269.359C327.535 269.186 327.607 268.962 327.59 268.737C327.577 268.623 327.54 268.512 327.483 268.412C327.426 268.313 327.35 268.225 327.259 268.155C327.168 268.085 327.064 268.033 326.953 268.004C326.842 267.975 326.726 267.968 326.612 267.983C326.387 268.005 326.179 268.115 326.033 268.288C325.888 268.461 325.816 268.684 325.833 268.91Z" fill="#263238"/>
<path d="M325.373 267.308C325.503 267.403 326.092 266.806 327.036 266.667C327.98 266.528 328.768 266.883 328.829 266.754C328.889 266.624 328.725 266.502 328.387 266.329C327.936 266.11 327.427 266.037 326.932 266.121C326.442 266.197 325.988 266.424 325.633 266.771C325.382 267.039 325.313 267.265 325.373 267.308Z" fill="#263238"/>
<path d="M323.018 274.842C322.494 274.779 321.965 274.779 321.442 274.842C321.199 274.842 320.966 274.842 320.896 274.678C320.834 274.433 320.852 274.175 320.948 273.942C321.078 273.327 321.225 272.677 321.373 271.993C321.794 270.336 322.084 268.648 322.239 266.944C321.685 268.565 321.262 270.227 320.974 271.915C320.836 272.602 320.706 273.252 320.585 273.864C320.472 274.177 320.472 274.52 320.585 274.834C320.632 274.914 320.698 274.982 320.776 275.033C320.854 275.084 320.942 275.116 321.035 275.128C321.176 275.142 321.318 275.142 321.459 275.128C321.989 275.101 322.513 275.005 323.018 274.842Z" fill="#263238"/>
<path d="M324.213 285.433C327.42 285.05 330.446 283.745 332.925 281.675C332.198 283.332 331.006 284.742 329.493 285.735C327.981 286.728 326.213 287.261 324.404 287.269L324.213 285.433Z" fill="#9CC90E"/>
<path d="M323.789 277.059C323.934 276.806 324.142 276.594 324.392 276.443C324.642 276.291 324.926 276.206 325.218 276.193C325.428 276.18 325.64 276.21 325.839 276.28C326.038 276.35 326.221 276.459 326.378 276.6C326.529 276.739 326.633 276.92 326.678 277.12C326.723 277.319 326.706 277.528 326.629 277.718C326.505 277.911 326.325 278.062 326.113 278.152C325.902 278.241 325.668 278.265 325.443 278.22C324.97 278.134 324.519 277.955 324.118 277.692C324.003 277.629 323.898 277.55 323.806 277.458C323.765 277.409 323.738 277.35 323.729 277.288C323.72 277.225 323.728 277.161 323.754 277.103" fill="#9CC90E"/>
<path d="M325.919 275.067C325.763 275.067 325.919 276.107 325.157 276.964C324.395 277.821 323.286 277.89 323.295 278.029C323.304 278.168 323.572 278.194 324.04 278.133C324.645 278.037 325.197 277.73 325.599 277.267C325.983 276.83 326.187 276.264 326.17 275.682C326.144 275.284 325.988 275.05 325.919 275.067Z" fill="#263238"/>
<path d="M324.525 264.736C324.663 264.979 325.59 264.736 326.716 264.667C327.842 264.598 328.786 264.788 328.898 264.537C329.011 264.286 328.751 264.199 328.353 264.009C327.824 263.778 327.249 263.672 326.673 263.697C326.096 263.723 325.534 263.88 325.027 264.156C324.646 264.381 324.473 264.615 324.525 264.736Z" fill="#263238"/>
<path d="M315.986 265.792C316.185 265.974 316.8 265.654 317.579 265.524C318.359 265.394 319.052 265.437 319.164 265.195C319.277 264.952 319.078 264.874 318.757 264.718C318.333 264.529 317.861 264.477 317.406 264.571C316.947 264.648 316.523 264.866 316.194 265.195C315.951 265.463 315.899 265.697 315.986 265.792Z" fill="#263238"/>
<path d="M339.896 279.718C338.078 280.393 337.757 279.467 336.147 278.376C335.344 277.825 334.68 277.094 334.21 276.242C333.739 275.389 333.474 274.438 333.436 273.465C333.384 271.733 334.016 269.898 333.185 268.399C332.076 266.425 329.028 266.243 327.92 264.269C327.27 263.117 327.452 261.627 326.75 260.519C326.367 260.032 325.89 259.628 325.346 259.331C324.803 259.033 324.206 258.848 323.59 258.787C322.354 258.666 321.144 258.353 320.004 257.86C318.922 257.263 318.099 255.938 318.558 254.786C323.763 254.594 328.973 255.021 334.077 256.059C335.284 256.19 336.419 256.696 337.324 257.505C338.084 258.54 338.499 259.789 338.511 261.073C339.198 267.256 339.879 273.442 340.554 279.631" fill="#263238"/>
<path d="M341.992 265.082C341.924 263.929 342.233 262.785 342.873 261.824C343.513 260.862 344.449 260.135 345.539 259.752C346.629 259.37 347.814 259.352 348.914 259.703C350.015 260.054 350.971 260.754 351.639 261.696C352.208 262.629 352.567 263.675 352.691 264.761C352.816 265.846 352.702 266.946 352.358 267.983C351.674 270.486 349.855 272.954 347.274 273.24C344.858 273.508 342.589 271.707 341.533 269.508C340.476 267.308 340.364 264.797 340.269 262.363" fill="#263238"/>
<path d="M344.815 274.245C344.943 274.113 345.043 273.957 345.11 273.786C345.311 273.33 345.411 272.837 345.404 272.339C345.39 271.603 345.253 270.874 344.997 270.183C344.737 269.404 344.33 268.607 343.992 267.741C343.643 266.949 343.455 266.095 343.438 265.23C343.438 264.45 343.715 263.749 343.785 263.117C343.86 262.62 343.794 262.113 343.594 261.653C343.43 261.333 343.256 261.211 343.248 261.229C343.239 261.246 343.36 261.385 343.482 261.696C343.629 262.146 343.658 262.626 343.568 263.091C343.388 263.792 343.252 264.503 343.161 265.221C343.162 266.115 343.348 267 343.707 267.819C344.053 268.685 344.469 269.49 344.737 270.244C344.991 270.904 345.142 271.599 345.188 272.305C345.211 272.971 345.084 273.634 344.815 274.245Z" fill="#455A64"/>
<path d="M343.62 266.009C343.947 266.389 344.36 266.686 344.824 266.875C345.918 267.418 347.152 267.618 348.362 267.448C349.572 267.278 350.702 266.746 351.605 265.923C351.997 265.611 352.314 265.214 352.531 264.762C352.488 264.762 352.168 265.195 351.466 265.758C350.56 266.492 349.475 266.97 348.322 267.144C347.167 267.298 345.991 267.136 344.919 266.676C344.088 266.33 343.646 265.966 343.62 266.009Z" fill="#455A64"/>
<path d="M344.122 267.031C344.309 267.402 344.565 267.734 344.876 268.009C345.584 268.724 346.434 269.285 347.37 269.655C348.298 270.035 349.294 270.224 350.297 270.209C350.712 270.232 351.128 270.17 351.518 270.027C351.114 270.003 350.709 270.003 350.306 270.027C348.352 269.94 346.487 269.185 345.023 267.888C344.741 267.584 344.44 267.297 344.122 267.031Z" fill="#455A64"/>
<path d="M343.888 276.73C343.888 276.73 343.888 276.73 343.958 276.635C344.01 276.537 344.056 276.435 344.096 276.332C344.262 275.93 344.353 275.502 344.365 275.067C344.385 274.375 344.236 273.689 343.932 273.067C343.534 272.225 342.849 271.553 342.001 271.17C340.981 270.841 340.024 270.343 339.169 269.698C338.963 269.497 338.802 269.255 338.694 268.988C338.587 268.722 338.536 268.435 338.545 268.148C338.58 267.515 338.685 266.888 338.857 266.277C339.023 265.585 339.043 264.866 338.916 264.165C338.789 263.464 338.519 262.798 338.121 262.207C337.701 261.577 337.133 261.06 336.467 260.7C335.765 260.367 335.001 260.184 334.224 260.163C333.462 260.112 332.708 260.163 331.99 260.034C331.284 259.965 330.606 259.724 330.015 259.332C329.481 258.912 329.105 258.323 328.95 257.661C328.781 257 328.567 256.352 328.309 255.721C327.811 254.541 326.996 253.521 325.954 252.777C325.033 252.137 323.939 251.796 322.819 251.798C321.888 251.783 320.977 252.068 320.221 252.612C319.657 253.016 319.205 253.555 318.904 254.179C318.713 254.571 318.593 254.993 318.549 255.426C318.529 255.576 318.529 255.727 318.549 255.877C318.587 255.304 318.74 254.744 319 254.231C319.364 253.545 319.911 252.974 320.581 252.581C321.251 252.188 322.016 251.989 322.793 252.006C323.865 252.02 324.907 252.362 325.78 252.984C326.778 253.709 327.557 254.695 328.032 255.833C328.273 256.459 328.478 257.098 328.647 257.747C328.82 258.468 329.232 259.109 329.816 259.566C330.442 259.994 331.166 260.259 331.92 260.337C332.674 260.441 333.427 260.415 334.181 260.467C334.913 260.486 335.633 260.66 336.294 260.978C336.921 261.305 337.457 261.784 337.852 262.372C338.228 262.931 338.484 263.562 338.605 264.226C338.726 264.889 338.708 265.569 338.554 266.225C338.384 266.853 338.282 267.498 338.251 268.148C338.241 268.47 338.3 268.791 338.422 269.089C338.544 269.388 338.728 269.657 338.961 269.88C339.842 270.545 340.833 271.052 341.888 271.378C342.693 271.719 343.352 272.332 343.75 273.11C344.055 273.708 344.216 274.37 344.218 275.041C344.22 275.62 344.108 276.194 343.888 276.73Z" fill="#455A64"/>
<path d="M340.416 257.713C340.442 257.605 340.442 257.492 340.416 257.384C340.391 257.064 340.263 256.76 340.052 256.518C339.714 256.128 339.258 255.861 338.753 255.756C338.085 255.649 337.401 255.733 336.779 255.998C336.086 256.249 335.385 256.648 334.596 256.933C334.2 257.116 333.769 257.21 333.332 257.21C332.896 257.21 332.464 257.116 332.068 256.933C331.26 256.367 330.618 255.596 330.206 254.699C329.68 253.729 328.998 252.851 328.188 252.101C326.619 250.647 324.612 249.754 322.481 249.564C321.546 249.501 320.61 249.677 319.762 250.075C319.022 250.427 318.397 250.983 317.961 251.677C317.605 252.258 317.441 252.937 317.493 253.617C317.526 254.123 317.684 254.614 317.952 255.046C318.116 255.318 318.33 255.556 318.584 255.747C318.674 255.81 318.77 255.865 318.87 255.912C318.546 255.651 318.268 255.337 318.047 254.985C317.814 254.559 317.681 254.085 317.657 253.599C317.63 252.961 317.8 252.329 318.142 251.789C318.568 251.14 319.168 250.623 319.874 250.3C320.687 249.929 321.582 249.774 322.472 249.85C324.534 250.045 326.473 250.915 327.989 252.326C328.776 253.047 329.442 253.889 329.963 254.82C330.398 255.759 331.081 256.562 331.938 257.141C332.376 257.374 332.872 257.476 333.367 257.436C333.821 257.4 334.267 257.298 334.692 257.133C335.514 256.821 336.199 256.414 336.865 256.154C337.449 255.892 338.093 255.796 338.727 255.877C339.202 255.963 339.636 256.2 339.966 256.552C340.181 256.772 340.32 257.054 340.364 257.358C340.425 257.592 340.399 257.713 340.416 257.713Z" fill="#455A64"/>
</svg>
