<svg width="320" height="352" viewBox="0 0 320 352" fill="none" xmlns="http://www.w3.org/2000/svg">
<g clip-path="url(#clip0_669_354)">
<path d="M222.205 71.7102C200.022 68.1736 174.762 66.2864 148.454 66.2864C124.378 66.2864 101.182 67.8646 80.4219 70.8403C80.4268 70.5218 80.4314 70.2034 80.4456 69.8849C80.9959 51.3981 88.7626 33.8597 102.086 21.0182C115.409 8.17679 133.231 1.05106 151.743 1.16404C170.256 1.27703 187.99 8.61978 201.155 21.6229C214.32 34.626 221.871 52.2579 222.195 70.75C222.2 71.0733 222.205 71.3918 222.205 71.7102Z" fill="#312F9C"/>
<g opacity="0.1">
<path opacity="0.1" d="M160.611 1.13761C150.765 -0.19104 140.749 0.561999 131.213 3.34792C121.677 6.13383 112.833 10.8905 105.255 17.3095C97.6768 23.7286 91.5332 31.6668 87.2224 40.6098C82.9115 49.5527 80.5297 59.3008 80.2312 69.2222C80.2168 69.5407 80.2122 69.8592 80.2075 70.1777C86.375 69.2936 92.7618 68.536 99.3186 67.9034C100.121 51.3748 106.689 35.6482 117.885 23.4525C129.081 11.2569 144.197 3.36195 160.611 1.13761Z" fill="white"/>
</g>
<path d="M253.219 77.3289C243.008 74.5635 232.651 72.3671 222.196 70.75C205.06 68.0971 187.784 66.4385 170.456 65.7825C163.237 65.4878 155.886 65.3357 148.454 65.3357C142.563 65.3357 136.72 65.4308 130.958 65.6209C114.056 66.1198 97.1928 67.5433 80.4458 69.8848C68.0489 71.5902 55.7722 74.0766 43.6892 77.3289C15.5162 85.1105 0 95.5398 0 106.692C0 117.844 15.5162 128.273 43.6892 136.054C63.5021 141.531 87.9304 145.262 114.548 146.973C125.534 147.686 136.892 148.048 148.454 148.048C160.054 148.048 171.45 147.682 182.47 146.969C206.694 145.405 229.105 142.167 247.861 137.461C247.961 137.433 248.056 137.409 248.156 137.385C249.422 137.072 250.668 136.744 251.901 136.416C252.343 136.292 252.781 136.173 253.219 136.054C253.243 136.044 253.269 136.036 253.295 136.031C253.714 135.917 254.128 135.798 254.542 135.684C255.37 135.446 256.188 135.213 256.992 134.971C257.03 134.961 257.063 134.952 257.097 134.942C257.796 134.733 258.481 134.524 259.162 134.315C259.718 134.139 260.27 133.968 260.817 133.792C261.217 133.663 261.612 133.535 262.002 133.407C262.288 133.312 262.569 133.221 262.845 133.126C263.22 133.003 263.596 132.874 263.967 132.746C264.124 132.694 264.282 132.641 264.434 132.584C264.791 132.465 265.138 132.342 265.485 132.218C265.861 132.085 266.237 131.947 266.608 131.814C266.918 131.705 267.227 131.591 267.531 131.477C267.788 131.377 268.04 131.282 268.297 131.187C268.997 130.925 269.682 130.654 270.358 130.388C270.696 130.25 271.033 130.117 271.366 129.979C271.695 129.846 272.028 129.708 272.351 129.571C272.884 129.347 273.407 129.124 273.921 128.9C274.169 128.786 274.421 128.677 274.664 128.572C274.849 128.487 275.03 128.406 275.216 128.32C275.349 128.263 275.482 128.202 275.611 128.14C276.091 127.921 276.567 127.698 277.033 127.474C278.822 126.619 280.493 125.744 282.043 124.85C291.774 119.284 296.908 113.109 296.908 106.692C296.908 95.5398 281.392 85.1105 253.219 77.3289ZM252.962 135.142C233.125 140.623 208.63 144.354 181.942 146.051C171.088 146.74 159.869 147.097 148.454 147.097C137.077 147.097 125.896 146.745 115.076 146.056C88.3444 144.364 63.8114 140.632 43.9461 135.142C16.2204 127.479 0.951628 117.378 0.951628 106.692C0.953178 105.747 1.07148 104.807 1.30384 103.892C3.73031 94.2516 18.6567 85.2293 43.9461 78.2416C55.9378 75.0146 68.1204 72.5426 80.4221 70.8403C97.2699 68.4855 114.234 67.0573 131.239 66.5621C136.911 66.3767 142.649 66.2848 148.454 66.2864C155.786 66.2864 163.038 66.4338 170.165 66.719C187.594 67.3691 204.971 69.0357 222.205 71.7102C232.57 73.3201 242.838 75.5006 252.962 78.2416C278.247 85.2293 293.168 94.2468 295.6 103.882C295.836 104.8 295.956 105.744 295.956 106.692C295.956 117.378 280.688 127.479 252.962 135.142Z" fill="#9493DE"/>
<path d="M296.637 107.124C296.637 113.475 291.398 119.483 282.044 124.85C280.488 125.744 278.813 126.619 277.033 127.474C276.567 127.698 276.091 127.921 275.611 128.14C275.482 128.201 275.349 128.263 275.216 128.32C275.03 128.406 274.849 128.487 274.664 128.572C274.421 128.677 274.169 128.786 273.922 128.9C273.408 129.124 272.884 129.347 272.351 129.57C272.028 129.708 271.695 129.846 271.366 129.979C271.033 130.117 270.696 130.25 270.358 130.388C269.682 130.654 268.997 130.925 268.298 131.187C268.041 131.282 267.788 131.377 267.531 131.477C267.227 131.591 266.918 131.705 266.608 131.814C266.237 131.947 265.861 132.085 265.485 132.218C265.138 132.342 264.791 132.465 264.434 132.584C264.282 132.641 264.125 132.694 263.968 132.746C263.597 132.874 263.221 133.003 262.845 133.126C262.569 133.221 262.288 133.312 262.003 133.407C261.612 133.535 261.217 133.663 260.818 133.792C260.27 133.968 259.718 134.139 259.162 134.315C258.482 134.524 257.796 134.733 257.097 134.942C257.063 134.952 257.03 134.961 256.992 134.971C256.188 135.213 255.37 135.446 254.542 135.684C254.128 135.798 253.714 135.917 253.295 136.031C253.269 136.036 253.244 136.044 253.219 136.054C252.781 136.173 252.343 136.292 251.901 136.416C250.673 136.739 249.422 137.067 248.156 137.385C248.056 137.409 247.961 137.433 247.861 137.461C229.614 142.015 207.227 145.333 182.451 146.935C171.598 147.634 160.283 148.005 148.659 148.005C136.93 148.005 125.52 147.629 114.581 146.916C49.2801 142.662 0.680664 126.462 0.680664 107.124C0.685805 105.948 0.865331 104.778 1.2134 103.654C1.24198 103.735 1.27055 103.811 1.30401 103.892C8.09365 121.708 56.2796 136.107 118.802 139.62C128.38 140.161 138.3 140.442 148.454 140.442C158.651 140.442 168.61 140.157 178.226 139.615C240.695 136.088 288.834 121.684 295.6 103.882C295.714 103.597 295.814 103.312 295.899 103.027C296.382 104.339 296.631 105.726 296.637 107.124Z" fill="#9493DE"/>
<path d="M43.6177 102.008C35.6989 102.008 27.2827 100.306 27.2827 97.1509C27.2827 93.9964 35.6989 92.2943 43.6177 92.2943C51.5366 92.2943 59.9528 93.9964 59.9528 97.1509C59.9528 100.306 51.5366 102.008 43.6177 102.008ZM43.6177 93.245C34.5521 93.245 28.2343 95.3036 28.2343 97.1509C28.2343 98.9983 34.5521 101.057 43.6177 101.057C52.6834 101.057 59.0011 98.9983 59.0011 97.1509C59.0011 95.3036 52.6834 93.245 43.6177 93.245Z" fill="#9493DE"/>
<path d="M77.4004 124.349C69.4816 124.349 61.0654 122.647 61.0654 119.493C61.0654 116.338 69.4816 114.636 77.4004 114.636C85.3193 114.636 93.7355 116.338 93.7355 119.493C93.7355 122.647 85.3193 124.349 77.4004 124.349ZM77.4004 115.587C68.3348 115.587 62.0171 117.645 62.0171 119.493C62.0171 121.34 68.3348 123.398 77.4004 123.398C86.466 123.398 92.7839 121.34 92.7839 119.493C92.7839 117.645 86.4661 115.587 77.4004 115.587Z" fill="#9493DE"/>
<path d="M252.976 102.008C245.057 102.008 236.641 100.306 236.641 97.1509C236.641 93.9964 245.057 92.2943 252.976 92.2943C260.894 92.2943 269.311 93.9964 269.311 97.1509C269.311 100.306 260.894 102.008 252.976 102.008ZM252.976 93.245C243.91 93.245 237.592 95.3036 237.592 97.1509C237.592 98.9983 243.91 101.057 252.976 101.057C262.041 101.057 268.359 98.9983 268.359 97.1509C268.359 95.3036 262.041 93.245 252.976 93.245Z" fill="#9493DE"/>
<path d="M219.193 124.349C211.274 124.349 202.858 122.647 202.858 119.493C202.858 116.338 211.274 114.636 219.193 114.636C227.112 114.636 235.528 116.338 235.528 119.493C235.528 122.647 227.112 124.349 219.193 124.349ZM219.193 115.587C210.127 115.587 203.81 117.645 203.81 119.493C203.81 121.34 210.127 123.398 219.193 123.398C228.259 123.398 234.576 121.34 234.576 119.493C234.576 117.645 228.259 115.587 219.193 115.587Z" fill="#9493DE"/>
<path d="M148.296 134.807C140.378 134.807 131.961 133.105 131.961 129.95C131.961 126.796 140.378 125.094 148.296 125.094C156.215 125.094 164.631 126.796 164.631 129.95C164.631 133.105 156.215 134.807 148.296 134.807ZM148.296 126.045C139.231 126.045 132.913 128.103 132.913 129.95C132.913 131.798 139.231 133.856 148.296 133.856C157.362 133.856 163.68 131.798 163.68 129.95C163.68 128.103 157.362 126.045 148.296 126.045Z" fill="#9493DE"/>
<path d="M160.339 234.716C171.379 234.716 180.329 225.775 180.329 214.745C180.329 203.715 171.379 194.774 160.339 194.774C149.298 194.774 140.349 203.715 140.349 214.745C140.349 225.775 149.298 234.716 160.339 234.716Z" fill="#4947C7"/>
<path d="M152.737 227.866L143.008 232.733L145.728 238.158L155.457 233.291L152.737 227.866Z" fill="#4947C7"/>
<path d="M147.01 237.608C147.587 236.733 146.163 234.779 143.83 233.242C141.497 231.705 139.137 231.167 138.56 232.041C137.983 232.916 139.407 234.87 141.741 236.407C144.074 237.944 146.433 238.482 147.01 237.608Z" fill="#4947C7"/>
<path d="M167.941 227.866L165.221 233.291L174.95 238.158L177.669 232.733L167.941 227.866Z" fill="#4947C7"/>
<path d="M178.937 236.407C181.27 234.87 182.694 232.916 182.117 232.041C181.54 231.167 179.181 231.705 176.848 233.242C174.514 234.779 173.09 236.733 173.667 237.608C174.244 238.482 176.604 237.944 178.937 236.407Z" fill="#4947C7"/>
<path d="M158.939 216.685C162.713 216.685 165.772 213.63 165.772 209.86C165.772 206.09 162.713 203.035 158.939 203.035C155.166 203.035 152.107 206.09 152.107 209.86C152.107 213.63 155.166 216.685 158.939 216.685Z" fill="white"/>
<path d="M160.601 208.552C161.487 207.667 161.482 206.227 160.59 205.336C159.698 204.445 158.257 204.44 157.371 205.325C156.486 206.209 156.491 207.649 157.383 208.54C158.274 209.431 159.715 209.436 160.601 208.552Z" fill="#9493DE"/>
<path d="M176.108 193.019C176.409 185.625 170.031 179.363 161.862 179.032C153.693 178.7 146.828 184.425 146.527 191.818C146.226 199.212 151.905 200.892 160.073 201.223C168.242 201.555 175.807 200.412 176.108 193.019Z" fill="#312F9C"/>
<path d="M187.631 225.202C188.946 224.075 187.097 219.768 183.501 215.584C179.905 211.4 175.925 208.922 174.61 210.049C173.295 211.177 175.144 215.483 178.74 219.668C182.335 223.852 186.316 226.33 187.631 225.202Z" fill="#4947C7"/>
<path d="M141.994 219.668C145.589 215.483 147.438 211.177 146.123 210.049C144.809 208.922 140.828 211.4 137.232 215.584C133.637 219.768 131.788 224.075 133.102 225.202C134.417 226.33 138.398 223.852 141.994 219.668Z" fill="#4947C7"/>
<path d="M165.829 222.615C166.045 223.803 165.781 225.027 165.093 226.019C164.406 227.012 163.352 227.691 162.164 227.907C160.975 228.123 159.749 227.859 158.756 227.172C157.763 226.485 157.083 225.432 156.867 224.245L156.865 224.236C156.417 221.763 158.331 220.888 160.806 220.441C163.281 219.993 165.381 220.142 165.829 222.615Z" fill="white"/>
<path d="M126.566 235.989C126.314 235.989 126.072 235.888 125.893 235.71C125.715 235.532 125.615 235.29 125.615 235.038V178.946C125.615 178.694 125.715 178.452 125.893 178.274C126.072 178.095 126.314 177.995 126.566 177.995C126.819 177.995 127.061 178.095 127.239 178.274C127.418 178.452 127.518 178.694 127.518 178.946V235.038C127.518 235.29 127.418 235.532 127.239 235.71C127.061 235.888 126.819 235.989 126.566 235.989Z" fill="#C0DB64"/>
<path d="M112.292 286.376C112.04 286.376 111.798 286.276 111.619 286.098C111.441 285.92 111.34 285.678 111.34 285.426V244.545C111.34 244.293 111.441 244.051 111.619 243.873C111.798 243.694 112.04 243.594 112.292 243.594C112.544 243.594 112.786 243.694 112.965 243.873C113.143 244.051 113.244 244.293 113.244 244.545V285.426C113.244 285.678 113.143 285.92 112.965 286.098C112.786 286.276 112.544 286.376 112.292 286.376Z" fill="#C0DB64"/>
<path d="M148.93 252.626C148.677 252.626 148.435 252.526 148.257 252.347C148.078 252.169 147.978 251.927 147.978 251.675V195.583C147.978 195.331 148.078 195.089 148.257 194.911C148.435 194.733 148.677 194.633 148.93 194.633C149.182 194.633 149.424 194.733 149.603 194.911C149.781 195.089 149.881 195.331 149.881 195.583V251.675C149.881 251.927 149.781 252.169 149.603 252.347C149.424 252.526 149.182 252.626 148.93 252.626Z" fill="#C0DB64"/>
<path d="M135.131 293.031C134.879 293.031 134.637 292.931 134.458 292.753C134.28 292.574 134.18 292.333 134.18 292.081V269.263C134.18 269.011 134.28 268.769 134.458 268.591C134.637 268.413 134.879 268.313 135.131 268.313C135.384 268.313 135.626 268.413 135.804 268.591C135.983 268.769 136.083 269.011 136.083 269.263V292.081C136.083 292.333 135.983 292.574 135.804 292.753C135.626 292.931 135.384 293.031 135.131 293.031Z" fill="#C0DB64"/>
<path d="M154.64 176.094C154.387 176.094 154.145 175.993 153.967 175.815C153.788 175.637 153.688 175.395 153.688 175.143V152.326C153.688 152.074 153.788 151.832 153.967 151.654C154.145 151.475 154.387 151.375 154.64 151.375C154.892 151.375 155.134 151.475 155.313 151.654C155.491 151.832 155.591 152.074 155.591 152.326V175.143C155.591 175.395 155.491 175.637 155.313 175.815C155.134 175.993 154.892 176.094 154.64 176.094Z" fill="#C0DB64"/>
<path d="M107.058 186.076C106.806 186.076 106.564 185.976 106.385 185.798C106.207 185.619 106.106 185.378 106.106 185.125V162.308C106.106 162.056 106.207 161.814 106.385 161.636C106.564 161.458 106.806 161.358 107.058 161.358C107.31 161.358 107.553 161.458 107.731 161.636C107.909 161.814 108.01 162.056 108.01 162.308V185.125C108.01 185.378 107.909 185.619 107.731 185.798C107.552 185.976 107.31 186.076 107.058 186.076Z" fill="#C0DB64"/>
<path d="M189.85 188.453C189.598 188.453 189.356 188.353 189.177 188.174C188.999 187.996 188.898 187.754 188.898 187.502V164.685C188.898 164.433 188.999 164.191 189.177 164.013C189.356 163.835 189.598 163.734 189.85 163.734C190.102 163.734 190.344 163.835 190.523 164.013C190.701 164.191 190.802 164.433 190.802 164.685V187.502C190.802 187.754 190.701 187.996 190.523 188.174C190.344 188.353 190.102 188.453 189.85 188.453Z" fill="#C0DB64"/>
<path d="M187.947 259.756C187.694 259.756 187.452 259.656 187.274 259.478C187.095 259.3 186.995 259.058 186.995 258.806V231.235C186.995 230.983 187.095 230.741 187.274 230.563C187.452 230.384 187.694 230.284 187.947 230.284C188.199 230.284 188.441 230.384 188.62 230.563C188.798 230.741 188.898 230.983 188.898 231.235V258.806C188.898 259.058 188.798 259.3 188.62 259.478C188.441 259.656 188.199 259.756 187.947 259.756Z" fill="#C0DB64"/>
<path d="M168.914 283.999C168.662 283.999 168.42 283.899 168.241 283.721C168.063 283.543 167.962 283.301 167.962 283.049V242.168C167.962 241.916 168.063 241.674 168.241 241.496C168.42 241.318 168.662 241.217 168.914 241.217C169.166 241.217 169.408 241.318 169.587 241.496C169.765 241.674 169.866 241.916 169.866 242.168V283.049C169.866 283.301 169.765 283.543 169.587 283.721C169.408 283.899 169.166 283.999 168.914 283.999Z" fill="#C0DB64"/>
<path d="M172.721 214.122C172.468 214.122 172.226 214.022 172.048 213.844C171.869 213.665 171.769 213.424 171.769 213.171V157.079C171.769 156.827 171.869 156.585 172.048 156.407C172.226 156.229 172.468 156.129 172.721 156.129C172.973 156.129 173.215 156.229 173.394 156.407C173.572 156.585 173.672 156.827 173.672 157.079V213.171C173.672 213.424 173.572 213.665 173.394 213.844C173.215 214.022 172.973 214.122 172.721 214.122Z" fill="#C0DB64"/>
<path d="M289.387 333.483C290.749 332.343 288.908 327.906 285.276 323.571C281.643 319.237 277.594 316.646 276.232 317.786C274.87 318.925 276.711 323.362 280.343 327.697C283.976 332.032 288.025 334.622 289.387 333.483Z" fill="#4947C7"/>
<path d="M280.454 328.553C284.033 317.827 278.23 306.233 267.494 302.658C256.757 299.082 245.152 304.879 241.573 315.605C237.994 326.332 243.797 337.926 254.533 341.501C265.27 345.077 276.875 339.28 280.454 328.553Z" fill="#4947C7"/>
<path d="M269.687 338.146H263.462V349.289H269.687V338.146Z" fill="#4947C7"/>
<path d="M257.236 338.146H251.011V349.289H257.236V338.146Z" fill="#4947C7"/>
<path d="M264.499 351.363C267.365 351.363 269.687 350.492 269.687 349.419C269.687 348.346 267.365 347.475 264.499 347.475C261.634 347.475 259.312 348.346 259.312 349.419C259.312 350.492 261.634 351.363 264.499 351.363Z" fill="#4947C7"/>
<path d="M252.048 351.103C254.913 351.103 257.236 350.233 257.236 349.16C257.236 348.086 254.913 347.216 252.048 347.216C249.183 347.216 246.86 348.086 246.86 349.16C246.86 350.233 249.183 351.103 252.048 351.103Z" fill="#4947C7"/>
<path d="M254.579 296.345C256.409 288.983 264.486 284.651 272.62 286.669C280.753 288.686 285.864 296.29 284.034 303.652C282.204 311.014 276.134 311.038 268 309.02C259.866 307.002 252.75 303.707 254.579 296.345Z" fill="#C0DB64"/>
<path d="M247.19 316.967C247.952 315.363 244.424 312.099 239.311 309.677C234.198 307.254 229.437 306.59 228.675 308.194C227.914 309.797 231.442 313.061 236.554 315.484C241.667 317.906 246.429 318.57 247.19 316.967Z" fill="#4947C7"/>
<path d="M257.95 324.585C261.723 324.585 264.782 321.529 264.782 317.76C264.782 313.99 261.723 310.934 257.95 310.934C254.177 310.934 251.118 313.99 251.118 317.76C251.118 321.529 254.177 324.585 257.95 324.585Z" fill="white"/>
<path d="M255.142 317.588C256.4 317.588 257.419 316.57 257.419 315.313C257.419 314.057 256.4 313.038 255.142 313.038C253.884 313.038 252.865 314.057 252.865 315.313C252.865 316.57 253.884 317.588 255.142 317.588Z" fill="#9493DE"/>
<path d="M257.892 334.862C259.468 334.862 260.746 333.586 260.746 332.01C260.746 330.435 259.468 329.158 257.892 329.158C256.315 329.158 255.037 330.435 255.037 332.01C255.037 333.586 256.315 334.862 257.892 334.862Z" fill="white"/>
<path d="M319.524 351.5H207.232C207.106 351.5 206.985 351.45 206.896 351.361C206.806 351.272 206.756 351.151 206.756 351.025C206.756 350.899 206.806 350.778 206.896 350.689C206.985 350.599 207.106 350.549 207.232 350.549H319.524C319.65 350.549 319.772 350.599 319.861 350.689C319.95 350.778 320 350.899 320 351.025C320 351.151 319.95 351.272 319.861 351.361C319.772 351.45 319.65 351.5 319.524 351.5Z" fill="#9493DE"/>
</g>
<defs>
<clipPath id="clip0_669_354">
<rect width="320" height="351" fill="white" transform="translate(0 0.5)"/>
</clipPath>
</defs>
</svg>
