<svg width="88" height="85" viewBox="0 0 88 85" fill="none" xmlns="http://www.w3.org/2000/svg">
<path d="M2.68 4.2C2.09333 4.2 1.6 4 1.2 3.6C0.826667 3.2 0.64 2.70667 0.64 2.12C0.64 1.53333 0.826667 1.05333 1.2 0.68C1.6 0.28 2.09333 0.0799998 2.68 0.0799998C3.24 0.0799998 3.70667 0.28 4.08 0.68C4.48 1.05333 4.68 1.53333 4.68 2.12C4.68 2.70667 4.48 3.2 4.08 3.6C3.70667 4 3.24 4.2 2.68 4.2ZM23.3222 4.2C22.7355 4.2 22.2422 4 21.8422 3.6C21.4689 3.2 21.2822 2.70667 21.2822 2.12C21.2822 1.53333 21.4689 1.05333 21.8422 0.68C22.2422 0.28 22.7355 0.0799998 23.3222 0.0799998C23.8822 0.0799998 24.3489 0.28 24.7222 0.68C25.1222 1.05333 25.3222 1.53333 25.3222 2.12C25.3222 2.70667 25.1222 3.2 24.7222 3.6C24.3489 4 23.8822 4.2 23.3222 4.2ZM43.9644 4.2C43.3777 4.2 42.8844 4 42.4844 3.6C42.111 3.2 41.9244 2.70667 41.9244 2.12C41.9244 1.53333 42.111 1.05333 42.4844 0.68C42.8844 0.28 43.3777 0.0799998 43.9644 0.0799998C44.5244 0.0799998 44.991 0.28 45.3644 0.68C45.7644 1.05333 45.9644 1.53333 45.9644 2.12C45.9644 2.70667 45.7644 3.2 45.3644 3.6C44.991 4 44.5244 4.2 43.9644 4.2ZM64.6066 4.2C64.0199 4.2 63.5266 4 63.1266 3.6C62.7532 3.2 62.5666 2.70667 62.5666 2.12C62.5666 1.53333 62.7532 1.05333 63.1266 0.68C63.5266 0.28 64.0199 0.0799998 64.6066 0.0799998C65.1666 0.0799998 65.6332 0.28 66.0066 0.68C66.4066 1.05333 66.6066 1.53333 66.6066 2.12C66.6066 2.70667 66.4066 3.2 66.0066 3.6C65.6332 4 65.1666 4.2 64.6066 4.2ZM85.2487 4.2C84.6621 4.2 84.1687 4 83.7687 3.6C83.3954 3.2 83.2087 2.70667 83.2087 2.12C83.2087 1.53333 83.3954 1.05333 83.7687 0.68C84.1687 0.28 84.6621 0.0799998 85.2487 0.0799998C85.8087 0.0799998 86.2754 0.28 86.6487 0.68C87.0487 1.05333 87.2487 1.53333 87.2487 2.12C87.2487 2.70667 87.0487 3.2 86.6487 3.6C86.2754 4 85.8087 4.2 85.2487 4.2ZM2.68 24.2C2.09333 24.2 1.6 24 1.2 23.6C0.826667 23.2 0.64 22.7067 0.64 22.12C0.64 21.5333 0.826667 21.0533 1.2 20.68C1.6 20.28 2.09333 20.08 2.68 20.08C3.24 20.08 3.70667 20.28 4.08 20.68C4.48 21.0533 4.68 21.5333 4.68 22.12C4.68 22.7067 4.48 23.2 4.08 23.6C3.70667 24 3.24 24.2 2.68 24.2ZM23.3222 24.2C22.7355 24.2 22.2422 24 21.8422 23.6C21.4689 23.2 21.2822 22.7067 21.2822 22.12C21.2822 21.5333 21.4689 21.0533 21.8422 20.68C22.2422 20.28 22.7355 20.08 23.3222 20.08C23.8822 20.08 24.3489 20.28 24.7222 20.68C25.1222 21.0533 25.3222 21.5333 25.3222 22.12C25.3222 22.7067 25.1222 23.2 24.7222 23.6C24.3489 24 23.8822 24.2 23.3222 24.2ZM43.9644 24.2C43.3777 24.2 42.8844 24 42.4844 23.6C42.111 23.2 41.9244 22.7067 41.9244 22.12C41.9244 21.5333 42.111 21.0533 42.4844 20.68C42.8844 20.28 43.3777 20.08 43.9644 20.08C44.5244 20.08 44.991 20.28 45.3644 20.68C45.7644 21.0533 45.9644 21.5333 45.9644 22.12C45.9644 22.7067 45.7644 23.2 45.3644 23.6C44.991 24 44.5244 24.2 43.9644 24.2ZM64.6066 24.2C64.0199 24.2 63.5266 24 63.1266 23.6C62.7532 23.2 62.5666 22.7067 62.5666 22.12C62.5666 21.5333 62.7532 21.0533 63.1266 20.68C63.5266 20.28 64.0199 20.08 64.6066 20.08C65.1666 20.08 65.6332 20.28 66.0066 20.68C66.4066 21.0533 66.6066 21.5333 66.6066 22.12C66.6066 22.7067 66.4066 23.2 66.0066 23.6C65.6332 24 65.1666 24.2 64.6066 24.2ZM85.2487 24.2C84.6621 24.2 84.1687 24 83.7687 23.6C83.3954 23.2 83.2087 22.7067 83.2087 22.12C83.2087 21.5333 83.3954 21.0533 83.7687 20.68C84.1687 20.28 84.6621 20.08 85.2487 20.08C85.8087 20.08 86.2754 20.28 86.6487 20.68C87.0487 21.0533 87.2487 21.5333 87.2487 22.12C87.2487 22.7067 87.0487 23.2 86.6487 23.6C86.2754 24 85.8087 24.2 85.2487 24.2ZM2.68 44.2C2.09333 44.2 1.6 44 1.2 43.6C0.826667 43.2 0.64 42.7067 0.64 42.12C0.64 41.5333 0.826667 41.0533 1.2 40.68C1.6 40.28 2.09333 40.08 2.68 40.08C3.24 40.08 3.70667 40.28 4.08 40.68C4.48 41.0533 4.68 41.5333 4.68 42.12C4.68 42.7067 4.48 43.2 4.08 43.6C3.70667 44 3.24 44.2 2.68 44.2ZM23.3222 44.2C22.7355 44.2 22.2422 44 21.8422 43.6C21.4689 43.2 21.2822 42.7067 21.2822 42.12C21.2822 41.5333 21.4689 41.0533 21.8422 40.68C22.2422 40.28 22.7355 40.08 23.3222 40.08C23.8822 40.08 24.3489 40.28 24.7222 40.68C25.1222 41.0533 25.3222 41.5333 25.3222 42.12C25.3222 42.7067 25.1222 43.2 24.7222 43.6C24.3489 44 23.8822 44.2 23.3222 44.2ZM43.9644 44.2C43.3777 44.2 42.8844 44 42.4844 43.6C42.111 43.2 41.9244 42.7067 41.9244 42.12C41.9244 41.5333 42.111 41.0533 42.4844 40.68C42.8844 40.28 43.3777 40.08 43.9644 40.08C44.5244 40.08 44.991 40.28 45.3644 40.68C45.7644 41.0533 45.9644 41.5333 45.9644 42.12C45.9644 42.7067 45.7644 43.2 45.3644 43.6C44.991 44 44.5244 44.2 43.9644 44.2ZM64.6066 44.2C64.0199 44.2 63.5266 44 63.1266 43.6C62.7532 43.2 62.5666 42.7067 62.5666 42.12C62.5666 41.5333 62.7532 41.0533 63.1266 40.68C63.5266 40.28 64.0199 40.08 64.6066 40.08C65.1666 40.08 65.6332 40.28 66.0066 40.68C66.4066 41.0533 66.6066 41.5333 66.6066 42.12C66.6066 42.7067 66.4066 43.2 66.0066 43.6C65.6332 44 65.1666 44.2 64.6066 44.2ZM85.2487 44.2C84.6621 44.2 84.1687 44 83.7687 43.6C83.3954 43.2 83.2087 42.7067 83.2087 42.12C83.2087 41.5333 83.3954 41.0533 83.7687 40.68C84.1687 40.28 84.6621 40.08 85.2487 40.08C85.8087 40.08 86.2754 40.28 86.6487 40.68C87.0487 41.0533 87.2487 41.5333 87.2487 42.12C87.2487 42.7067 87.0487 43.2 86.6487 43.6C86.2754 44 85.8087 44.2 85.2487 44.2ZM2.68 64.2C2.09333 64.2 1.6 64 1.2 63.6C0.826667 63.2 0.64 62.7067 0.64 62.12C0.64 61.5333 0.826667 61.0533 1.2 60.68C1.6 60.28 2.09333 60.08 2.68 60.08C3.24 60.08 3.70667 60.28 4.08 60.68C4.48 61.0533 4.68 61.5333 4.68 62.12C4.68 62.7067 4.48 63.2 4.08 63.6C3.70667 64 3.24 64.2 2.68 64.2ZM23.3222 64.2C22.7355 64.2 22.2422 64 21.8422 63.6C21.4689 63.2 21.2822 62.7067 21.2822 62.12C21.2822 61.5333 21.4689 61.0533 21.8422 60.68C22.2422 60.28 22.7355 60.08 23.3222 60.08C23.8822 60.08 24.3489 60.28 24.7222 60.68C25.1222 61.0533 25.3222 61.5333 25.3222 62.12C25.3222 62.7067 25.1222 63.2 24.7222 63.6C24.3489 64 23.8822 64.2 23.3222 64.2ZM43.9644 64.2C43.3777 64.2 42.8844 64 42.4844 63.6C42.111 63.2 41.9244 62.7067 41.9244 62.12C41.9244 61.5333 42.111 61.0533 42.4844 60.68C42.8844 60.28 43.3777 60.08 43.9644 60.08C44.5244 60.08 44.991 60.28 45.3644 60.68C45.7644 61.0533 45.9644 61.5333 45.9644 62.12C45.9644 62.7067 45.7644 63.2 45.3644 63.6C44.991 64 44.5244 64.2 43.9644 64.2ZM64.6066 64.2C64.0199 64.2 63.5266 64 63.1266 63.6C62.7532 63.2 62.5666 62.7067 62.5666 62.12C62.5666 61.5333 62.7532 61.0533 63.1266 60.68C63.5266 60.28 64.0199 60.08 64.6066 60.08C65.1666 60.08 65.6332 60.28 66.0066 60.68C66.4066 61.0533 66.6066 61.5333 66.6066 62.12C66.6066 62.7067 66.4066 63.2 66.0066 63.6C65.6332 64 65.1666 64.2 64.6066 64.2ZM85.2487 64.2C84.6621 64.2 84.1687 64 83.7687 63.6C83.3954 63.2 83.2087 62.7067 83.2087 62.12C83.2087 61.5333 83.3954 61.0533 83.7687 60.68C84.1687 60.28 84.6621 60.08 85.2487 60.08C85.8087 60.08 86.2754 60.28 86.6487 60.68C87.0487 61.0533 87.2487 61.5333 87.2487 62.12C87.2487 62.7067 87.0487 63.2 86.6487 63.6C86.2754 64 85.8087 64.2 85.2487 64.2ZM2.68 84.2C2.09333 84.2 1.6 84 1.2 83.6C0.826667 83.2 0.64 82.7067 0.64 82.12C0.64 81.5333 0.826667 81.0533 1.2 80.68C1.6 80.28 2.09333 80.08 2.68 80.08C3.24 80.08 3.70667 80.28 4.08 80.68C4.48 81.0533 4.68 81.5333 4.68 82.12C4.68 82.7067 4.48 83.2 4.08 83.6C3.70667 84 3.24 84.2 2.68 84.2ZM23.3222 84.2C22.7355 84.2 22.2422 84 21.8422 83.6C21.4689 83.2 21.2822 82.7067 21.2822 82.12C21.2822 81.5333 21.4689 81.0533 21.8422 80.68C22.2422 80.28 22.7355 80.08 23.3222 80.08C23.8822 80.08 24.3489 80.28 24.7222 80.68C25.1222 81.0533 25.3222 81.5333 25.3222 82.12C25.3222 82.7067 25.1222 83.2 24.7222 83.6C24.3489 84 23.8822 84.2 23.3222 84.2ZM43.9644 84.2C43.3777 84.2 42.8844 84 42.4844 83.6C42.111 83.2 41.9244 82.7067 41.9244 82.12C41.9244 81.5333 42.111 81.0533 42.4844 80.68C42.8844 80.28 43.3777 80.08 43.9644 80.08C44.5244 80.08 44.991 80.28 45.3644 80.68C45.7644 81.0533 45.9644 81.5333 45.9644 82.12C45.9644 82.7067 45.7644 83.2 45.3644 83.6C44.991 84 44.5244 84.2 43.9644 84.2ZM64.6066 84.2C64.0199 84.2 63.5266 84 63.1266 83.6C62.7532 83.2 62.5666 82.7067 62.5666 82.12C62.5666 81.5333 62.7532 81.0533 63.1266 80.68C63.5266 80.28 64.0199 80.08 64.6066 80.08C65.1666 80.08 65.6332 80.28 66.0066 80.68C66.4066 81.0533 66.6066 81.5333 66.6066 82.12C66.6066 82.7067 66.4066 83.2 66.0066 83.6C65.6332 84 65.1666 84.2 64.6066 84.2ZM85.2487 84.2C84.6621 84.2 84.1687 84 83.7687 83.6C83.3954 83.2 83.2087 82.7067 83.2087 82.12C83.2087 81.5333 83.3954 81.0533 83.7687 80.68C84.1687 80.28 84.6621 80.08 85.2487 80.08C85.8087 80.08 86.2754 80.28 86.6487 80.68C87.0487 81.0533 87.2487 81.5333 87.2487 82.12C87.2487 82.7067 87.0487 83.2 86.6487 83.6C86.2754 84 85.8087 84.2 85.2487 84.2Z" fill="white"/>
</svg>
